<svg id="autobid-icon" xmlns="http://www.w3.org/2000/svg" width="24" height="24" viewBox="0 0 24 24">
  <g id="Group_4220" data-name="Group 4220" transform="translate(-899.647 -237.512)">
    <path id="Icon_simple-automatic" data-name="Icon simple-automatic" d="M9.2,11.393h3.305L10.835,7.716M18.754,4.23,11.886.262a2.332,2.332,0,0,0-2.1,0L2.917,4.23a2.325,2.325,0,0,0-1.051,1.82v7.928A2.322,2.322,0,0,0,2.917,15.8l6.868,3.967a2.332,2.332,0,0,0,2.1,0l6.867-3.976A2.316,2.316,0,0,0,19.8,13.973V6.048A2.328,2.328,0,0,0,18.753,4.23ZM13.7,14.278l-.741-1.36H8.673l-.7,1.36H5.237l4.5-9.2a1.211,1.211,0,0,1,1.1-.751,1.243,1.243,0,0,1,1.1.742l4.5,9.209H13.7Z" transform="translate(900.781 239.5)" fill="#ffb81c"/>
  </g>
  <rect id="Rectangle_2544" data-name="Rectangle 2544" width="24" height="24" fill="none"/>
</svg>
