<svg xmlns="http://www.w3.org/2000/svg" width="18.602" height="18.601" viewBox="0 0 18.602 18.601">
  <g data-name="Group 2837" transform="translate(6.511 14.664)">
    <g data-name="Group 2836">
      <path
        d="M1.4 387.484h9.3a1.4 1.4 0 011.4 1.4v2.54H0v-2.54a1.4 1.4 0 011.4-1.4z"
        fill="#ccc"
        data-name="Path 18911"
        transform="translate(0 -387.484)"
      ></path>
    </g>
  </g>
  <g data-name="Group 2839">
    <g data-name="Group 2838">
      <path
        d="M60.482 14.891L68.969 6.4 67.33 4.767a.688.688 0 01-.942-1L69.922.233a.686.686 0 01.971.971l.029-.029L75.41 5.66l-.029.032a.686.686 0 01.971.971L72.82 10.2a.688.688 0 01-.974-.974l-.029.029-1.639-1.639-8.484 8.484a.856.856 0 11-1.212-1.209z"
        fill="#ccc"
        data-name="Path 18912"
        transform="translate(-60.232 -.03)"
      ></path>
    </g>
  </g>
</svg>