<svg xmlns="http://www.w3.org/2000/svg" width="58.5" height="58" viewBox="0 0 58.5 58">
    <path data-name="Rectangle 2557" style="fill:none" d="M0 0h58v58H0z" transform="translate(.25)"/>
    <g data-name="Group 4343">
        <path data-name="Path 19306" d="M618.649 229.544h-24.3a.879.879 0 1 1 0-1.757h24.3a.879.879 0 1 1 0 1.757" transform="translate(-577.251 -221.208)" style="fill:#fdb71c"/>
        <path data-name="Path 19307" d="M618.649 229.544h-24.3a.879.879 0 1 1 0-1.757h24.3a.879.879 0 1 1 0 1.757z" transform="translate(-577.251 -221.208)" style="stroke:#fdb71a;stroke-miterlimit:10;stroke-width:.5px;fill:none"/>
        <path data-name="Path 19308" d="M628.885 274.345h-47.454a5.276 5.276 0 0 1-5.273-5.268v-36.023a5.275 5.275 0 0 1 5.273-5.267h2.722a.878.878 0 1 1 0 1.755h-2.722a3.518 3.518 0 0 0-3.515 3.512v36.024a3.518 3.518 0 0 0 3.515 3.512h47.454a3.517 3.517 0 0 0 3.515-3.512v-36.024a3.517 3.517 0 0 0-3.515-3.512h-2.726a.878.878 0 1 1 0-1.755h2.726a5.276 5.276 0 0 1 5.273 5.267v36.024a5.276 5.276 0 0 1-5.273 5.268" transform="translate(-575.908 -221.208)" style="fill:#fdb71c"/>
        <path data-name="Path 19309" d="M628.885 274.345h-47.454a5.276 5.276 0 0 1-5.273-5.268v-36.023a5.275 5.275 0 0 1 5.273-5.267h2.722a.878.878 0 1 1 0 1.755h-2.722a3.518 3.518 0 0 0-3.515 3.512v36.024a3.518 3.518 0 0 0 3.515 3.512h47.454a3.517 3.517 0 0 0 3.515-3.512v-36.024a3.517 3.517 0 0 0-3.515-3.512h-2.726a.878.878 0 1 1 0-1.755h2.726a5.276 5.276 0 0 1 5.273 5.267v36.024a5.276 5.276 0 0 1-5.273 5.267z" transform="translate(-575.908 -221.208)" style="stroke:#fdb71a;stroke-miterlimit:10;stroke-width:.5px;fill:none"/>
        <path data-name="Path 19310" d="M625.3 235.152h-.065a3.519 3.519 0 0 1-3.514-3.515v-4.067a3.518 3.518 0 0 1 3.514-3.514h.065a3.518 3.518 0 0 1 3.514 3.514v4.066a3.519 3.519 0 0 1-3.514 3.515m-.065-9.339a1.759 1.759 0 0 0-1.757 1.757v4.066a1.759 1.759 0 0 0 1.757 1.757h.065a1.758 1.758 0 0 0 1.757-1.757v-4.065a1.758 1.758 0 0 0-1.757-1.757z" transform="translate(-579.443 -220.919)" style="fill:#fdb71c"/>
        <path data-name="Path 19311" d="M625.3 235.152h-.065a3.519 3.519 0 0 1-3.514-3.515v-4.067a3.518 3.518 0 0 1 3.514-3.514h.065a3.518 3.518 0 0 1 3.514 3.514v4.066a3.519 3.519 0 0 1-3.514 3.516zm-.065-9.339a1.759 1.759 0 0 0-1.757 1.757v4.066a1.759 1.759 0 0 0 1.757 1.757h.065a1.758 1.758 0 0 0 1.757-1.757v-4.066a1.758 1.758 0 0 0-1.757-1.757z" transform="translate(-579.443 -220.919)" style="stroke:#fdb71a;stroke-miterlimit:10;stroke-width:.5px;fill:none"/>
        <path data-name="Path 19312" d="M589.357 235.152h-.064a3.52 3.52 0 0 1-3.516-3.515v-4.067a3.519 3.519 0 0 1 3.516-3.514h.064a3.519 3.519 0 0 1 3.516 3.514v4.066a3.52 3.52 0 0 1-3.516 3.515m-.064-9.339a1.76 1.76 0 0 0-1.759 1.757v4.066a1.76 1.76 0 0 0 1.759 1.757h.064a1.759 1.759 0 0 0 1.759-1.757v-4.065a1.759 1.759 0 0 0-1.759-1.757z" transform="translate(-576.654 -220.919)" style="fill:#fdb71c"/>
        <path data-name="Path 19313" d="M589.357 235.152h-.064a3.52 3.52 0 0 1-3.516-3.515v-4.067a3.519 3.519 0 0 1 3.516-3.514h.064a3.519 3.519 0 0 1 3.516 3.514v4.066a3.52 3.52 0 0 1-3.516 3.516zm-.064-9.339a1.76 1.76 0 0 0-1.759 1.757v4.066a1.76 1.76 0 0 0 1.759 1.757h.064a1.759 1.759 0 0 0 1.759-1.757v-4.066a1.759 1.759 0 0 0-1.759-1.757z" transform="translate(-576.654 -220.919)" style="stroke:#fdb71a;stroke-miterlimit:10;stroke-width:.5px;fill:none"/>
        <path data-name="Path 19314" d="M625.87 267.727h-40.3a2.222 2.222 0 0 1-2.14-2.291v-24.379a.879.879 0 0 1 .879-.878h42.817a.879.879 0 0 1 .879.878v24.379a2.222 2.222 0 0 1-2.14 2.291m-40.677-25.791v23.5c0 .3.209.534.382.534h40.3c.173 0 .382-.238.382-.534v-23.5z" transform="translate(-576.473 -222.203)" style="fill:#fdb71c"/>
        <path data-name="Path 19315" d="M625.87 267.727h-40.3a2.222 2.222 0 0 1-2.14-2.291v-24.379a.879.879 0 0 1 .879-.878h42.817a.879.879 0 0 1 .879.878v24.379a2.222 2.222 0 0 1-2.135 2.291zm-40.677-25.791v23.5c0 .3.209.534.382.534h40.3c.173 0 .382-.238.382-.534v-23.5z" transform="translate(-576.473 -222.203)" style="stroke:#fdb71a;stroke-miterlimit:10;stroke-width:.5px;fill:none"/>
        <path data-name="Path 19316" d="M604.643 261.848a.879.879 0 0 1-.608-.244l-6.373-6.114a.879.879 0 1 1 1.217-1.269l5.7 5.468 10.09-11.879a.879.879 0 0 1 1.339 1.138l-10.694 12.59a.879.879 0 0 1-.625.309h-.045" transform="translate(-577.555 -222.768)" style="fill:#fdb71c"/>
        <path data-name="Path 19317" d="M604.643 261.848a.879.879 0 0 1-.608-.244l-6.373-6.114a.879.879 0 1 1 1.217-1.269l5.7 5.468 10.09-11.879a.879.879 0 0 1 1.339 1.138l-10.694 12.59a.879.879 0 0 1-.625.309z" transform="translate(-577.555 -222.768)" style="stroke:#fdb71a;stroke-miterlimit:10;stroke-width:.5px;fill:none"/>
    </g>
</svg>
