<svg xmlns="http://www.w3.org/2000/svg" width="20" height="19.999" viewBox="0 0 20 19.999">
    <path data-name="Icon ionic-ios-call" d="M21.917 18.161a16.8 16.8 0 0 0-3.509-2.348c-1.052-.505-1.437-.495-2.182.042-.62.448-1.02.864-1.734.708a10.343 10.343 0 0 1-3.483-2.577A10.268 10.268 0 0 1 8.432 10.5c-.151-.718.266-1.114.708-1.734.536-.745.552-1.13.042-2.182a16.467 16.467 0 0 0-2.348-3.507c-.765-.765-.937-.6-1.359-.448a7.733 7.733 0 0 0-1.244.661 3.754 3.754 0 0 0-1.495 1.578c-.3.64-.64 1.833 1.109 4.946A27.6 27.6 0 0 0 8.7 16.286l.005.005.005.005a27.707 27.707 0 0 0 6.472 4.852c3.113 1.749 4.306 1.406 4.946 1.109a3.69 3.69 0 0 0 1.572-1.493 7.733 7.733 0 0 0 .661-1.244c.155-.42.326-.594-.444-1.359z" transform="translate(-2.494 -2.501)" style="fill:#9a9a9a"/>
</svg>
