<svg id="call-icon" xmlns="http://www.w3.org/2000/svg" width="15.006" height="15.005" viewBox="0 0 15.006 15.005">
  <path id="Icon_ionic-ios-call" data-name="Icon ionic-ios-call" d="M2.928,14.251a12.6,12.6,0,0,1,2.633-1.762c.789-.379,1.078-.371,1.637.031.465.336.766.648,1.3.531a7.76,7.76,0,0,0,2.613-1.934A7.7,7.7,0,0,0,13.045,8.5c.113-.539-.2-.836-.531-1.3-.4-.559-.414-.848-.031-1.637a12.355,12.355,0,0,1,1.762-2.633c.574-.574.7-.449,1.02-.336a5.8,5.8,0,0,1,.934.5,2.816,2.816,0,0,1,1.121,1.184c.223.48.48,1.375-.832,3.711a20.708,20.708,0,0,1-3.641,4.856h0l0,0,0,0h0a20.788,20.788,0,0,1-4.856,3.641c-2.336,1.313-3.231,1.055-3.711.832A2.768,2.768,0,0,1,3.088,16.2a5.8,5.8,0,0,1-.5-.934C2.479,14.954,2.35,14.825,2.928,14.251Z" transform="translate(-2.494 -2.501)" fill="#fff"/>
</svg>
