<svg id="copy-icon" xmlns="http://www.w3.org/2000/svg" width="20" height="20" viewBox="0 0 20 20">
  <defs>
    <style>
      .cls-1, .cls-2 {
        fill: none;
      }

      .cls-1 {
        stroke: #fff;
        stroke-linecap: round;
        stroke-linejoin: round;
        stroke-width: 2px;
      }
    </style>
  </defs>
  <g id="Icon_feather-copy" data-name="Icon feather-copy" transform="translate(0.488 -0.012)">
    <path id="Path_19121" data-name="Path 19121" class="cls-1" d="M10.6,9h7.211a1.6,1.6,0,0,1,1.6,1.6v7.211a1.6,1.6,0,0,1-1.6,1.6H10.6a1.6,1.6,0,0,1-1.6-1.6V10.6A1.6,1.6,0,0,1,10.6,9Z" transform="translate(-1.415 -1.415)"/>
    <path id="Path_19122" data-name="Path 19122" class="cls-1" d="M4.4,12.415H3.6a1.6,1.6,0,0,1-1.6-1.6V3.6A1.6,1.6,0,0,1,3.6,2h7.211a1.6,1.6,0,0,1,1.6,1.6v.8"/>
  </g>
  <rect id="Rectangle_2235" data-name="Rectangle 2235" class="cls-2" width="20" height="20"/>
</svg>
