<svg xmlns="http://www.w3.org/2000/svg" width="24" height="24" viewBox="0 0 24 24">
    <path data-name="Rectangle 2226" style="fill:none" d="M0 0h24v24H0z"/>
    <path data-name="Icon metro-calendar" d="M9.322 9.86h2.142V12H9.322zm3.216 0h2.142V12h-2.142zm3.213 0h2.142V12h-2.144zm-9.643 6.425h2.143v2.142H6.108zm3.213 0h2.143v2.142H9.322zm3.213 0h2.142v2.142h-2.138zm-3.212-3.214h2.142v2.142H9.322zm3.213 0h2.142v2.142h-2.139zm3.213 0h2.142v2.142h-2.141zm-9.64 0h2.143v2.142H6.108zm11.782-9.64v1.071h-2.141V3.431h-7.5v1.071H6.108V3.431H3.966v17.138h16.072V3.431h-2.147zm1.071 16.067H5.038V7.716h13.924v11.782z"/>
</svg>
