<svg xmlns="http://www.w3.org/2000/svg" width="20.74" height="14" viewBox="0 0 20.74 14">
    <path data-name="Icon zocial-email" d="M.04 15.02V3.5q0-.02.06-.38l6.78 5.8-6.76 6.5a1.7 1.7 0 0 1-.08-.4zm.9-12.7a.862.862 0 0 1 .34-.06h18.26a1.133 1.133 0 0 1 .36.06l-6.8 5.82-.9.72-1.78 1.46-1.78-1.46-.9-.72zM.96 16.2l6.82-6.54 2.64 2.14 2.64-2.14 6.82 6.54a.96.96 0 0 1-.34.06H1.28a.906.906 0 0 1-.32-.06zm13-7.28 6.76-5.8a1.194 1.194 0 0 1 .06.38v11.52a1.533 1.533 0 0 1-.06.4z" transform="translate(-.04 -2.26)" style="fill:#fff"/>
</svg>
