<svg xmlns="http://www.w3.org/2000/svg" width="20" height="14" viewBox="0 0 20 14">
  <g data-name="Group 3806">
    <path fill="#eceff1" d="M0 0h19.999v14H0z" data-name="Rectangle 171"></path>
    <g fill="#f44336" data-name="Group 2996">
      <path d="M.001 0H20v1.556H.001z" data-name="Rectangle 172"></path>
      <path d="M.001 3.111H20v1.556H.001z" data-name="Rectangle 173"></path>
      <path d="M.001 6.222H20v1.556H.001z" data-name="Rectangle 174"></path>
      <path d="M.001 9.333H20v1.556H.001z" data-name="Rectangle 175"></path>
      <path d="M.001 12.444H20V14H.001z" data-name="Rectangle 176"></path>
    </g>
    <path fill="#3f51b5" d="M.001 0h9.545v7.778H.001z" data-name="Rectangle 177"></path>
    <g fill="#fff" data-name="Group 2997">
      <path
        d="M1.024 1.037l.21.512.471.082-.341.4.081.562-.422-.265-.422.265.081-.562-.341-.4.471-.082z"
        data-name="Path 2859"
      ></path>
      <path
        d="M2.842 1.037l.21.512.471.082-.341.4.081.562-.422-.265-.422.265.081-.562-.341-.4.471-.082z"
        data-name="Path 2860"
      ></path>
      <path
        d="M4.66 1.037l.21.512.471.082-.341.4.081.562-.422-.265-.422.265.081-.562-.341-.4.471-.082z"
        data-name="Path 2861"
      ></path>
      <path
        d="M6.478 1.037l.21.512.471.082-.341.4.081.562-.422-.265-.422.265.081-.562-.341-.4.471-.082z"
        data-name="Path 2862"
      ></path>
      <path
        d="M8.183 1.037l.21.512.471.082-.341.4.081.562-.422-.265-.422.265.081-.562-.341-.4.471-.082z"
        data-name="Path 2863"
      ></path>
      <path
        d="M1.024 5.185l.21.512.471.082-.341.4.081.562-.422-.265-.422.265.081-.562-.341-.4.471-.082z"
        data-name="Path 2864"
      ></path>
      <path
        d="M2.842 5.185l.21.512.471.082-.341.4.081.562-.422-.265-.422.265.081-.562-.341-.4.471-.082z"
        data-name="Path 2865"
      ></path>
      <path
        d="M4.66 5.185l.21.512.471.082-.341.4.081.562-.422-.265-.422.265.081-.562-.341-.4.471-.082z"
        data-name="Path 2866"
      ></path>
      <path
        d="M6.478 5.185l.21.512.471.082-.341.4.081.562-.422-.265-.422.265.081-.562-.341-.4.471-.082z"
        data-name="Path 2867"
      ></path>
      <path
        d="M8.183 5.185l.21.512.471.082-.341.4.081.562-.422-.265-.422.265.081-.562-.341-.4.471-.082z"
        data-name="Path 2868"
      ></path>
      <path
        d="M1.479 3.111l.21.512.471.082-.341.4.081.562-.422-.265-.422.265.081-.562-.341-.4.471-.082z"
        data-name="Path 2869"
      ></path>
      <path
        d="M3.297 3.111l.21.512.471.082-.341.4.081.562-.422-.265-.422.265.081-.562-.341-.4.471-.082z"
        data-name="Path 2870"
      ></path>
      <path
        d="M5.115 3.111l.21.512.471.082-.341.4.081.562-.422-.265-.422.265.081-.562-.341-.4.471-.082z"
        data-name="Path 2871"
      ></path>
      <path
        d="M6.933 3.111l.21.512.471.082-.341.4.081.562-.422-.265-.422.265.081-.562-.341-.4.471-.082z"
        data-name="Path 2872"
      ></path>
      <path
        d="M8.637 3.111l.21.512.471.082-.341.4.081.562-.422-.265-.422.265.081-.562-.341-.4.471-.082z"
        data-name="Path 2873"
      ></path>
    </g>
  </g>
</svg>

