<svg xmlns="http://www.w3.org/2000/svg" width="32" height="32.046" viewBox="0 0 32 32.046">
    <path data-name="Path 18920" d="M108.806 16.013A16 16 0 1 1 93.149.028a16.034 16.034 0 0 1 15.658 15.986M98.457 4.977a1.556 1.556 0 0 0-.319-.083c-1.107-.037-2.217-.1-3.327-.09a4.723 4.723 0 0 0-4.665 4.6c-.09 1.119-.046 2.247-.065 3.371-.007.418-.009.425-.421.428h-2.575c-.16 0-.317.016-.465.023a22.577 22.577 0 0 0 .042 4.05h3.414v3.553c0 1.165-.035 2.307 0 3.458s-.079 2.323.023 3.509c1.4.014 2.758.03 4.145 0V17.709c0-.435.009-.442.453-.442h2.485c.187 0 .374-.025.592-.039.185-1.332.388-2.626.5-3.983-.233-.009-.421-.018-.608-.021h-3.019c-.375 0-.4-.039-.407-.409 0-.43-.009-.86 0-1.288.012-.548.009-1.1.067-1.639a1.3 1.3 0 0 1 .943-1.174 3.614 3.614 0 0 1 .911-.166c.606-.028 1.214-.007 1.822-.012.153 0 .307-.025.465-.042z" transform="translate(-76.807 -.025)" style="fill:#fff"/>
</svg>
