<svg xmlns="http://www.w3.org/2000/svg" width="32" height="32" viewBox="0 0 32 32">
    <path data-name="Rectangle 1174" style="fill:none" d="M0 0h32v32H0z"/>
    <path data-name="Icon awesome-file-download" d="M12.25 7.438V0H1.313A1.309 1.309 0 0 0 0 1.313v25.375A1.309 1.309 0 0 0 1.313 28h18.375A1.309 1.309 0 0 0 21 26.688V8.75h-7.437a1.316 1.316 0 0 1-1.313-1.312zM16.431 19l-5.273 5.23a.932.932 0 0 1-1.315 0L4.57 19a.875.875 0 0 1 .615-1.5H8.75v-4.375a.875.875 0 0 1 .875-.875h1.75a.875.875 0 0 1 .875.875V17.5h3.565a.875.875 0 0 1 .616 1.5zm4.186-13.258L15.263.383A1.312 1.312 0 0 0 14.334 0H14v7h7v-.334a1.308 1.308 0 0 0-.383-.924z" transform="translate(5.5 2)" style="fill:#9a9a9a"/>
</svg>
