<svg id="home-icon" xmlns="http://www.w3.org/2000/svg" width="16" height="16" viewBox="0 0 16 16">
  <rect id="Rectangle_2242" data-name="Rectangle 2242" width="16" height="16" fill="none"/>
  <g id="Icon_feather-home" data-name="Icon feather-home" transform="translate(-1.5 -2.333)">
    <path id="Icon_awesome-home" data-name="Icon awesome-home" d="M7.787,4.229,2.666,8.447V13a.444.444,0,0,0,.444.444l3.113-.008a.444.444,0,0,0,.442-.444V10.333a.444.444,0,0,1,.444-.444H8.888a.444.444,0,0,1,.444.444v2.656a.444.444,0,0,0,.444.446l3.111.009A.444.444,0,0,0,13.332,13V8.444L8.212,4.229a.339.339,0,0,0-.425,0ZM15.876,7.1,13.554,5.182l-2.222-1.83L8.846,1.306a1.333,1.333,0,0,0-1.694,0L.12,7.1a.333.333,0,0,0-.044.469l.708.861a.333.333,0,0,0,.47.045L7.787,3.091a.339.339,0,0,1,.425,0l6.534,5.381a.333.333,0,0,0,.469-.044l.708-.861a.333.333,0,0,0-.047-.47Z" transform="translate(1.5 2.331)" fill="#9a9a9a"/>
  </g>
</svg>
