<svg xmlns="http://www.w3.org/2000/svg" width="32" height="32" viewBox="0 0 32 32">
    <g data-name="Group 3672">
        <path data-name="profile-[#1336]" d="M334 2011a7.6 7.6 0 0 1 7.784 6h-15.568a7.6 7.6 0 0 1 7.784-6m-4-6a4 4 0 1 1 4 4 4 4 0 0 1-4-4m7.758 4.673a6 6 0 1 0-7.516 0A9.62 9.62 0 0 0 324 2019h20a9.62 9.62 0 0 0-6.242-9.327" transform="translate(-319 -1993)" style="fill:#9a9a9a;fill-rule:evenodd"/>
        <path data-name="Rectangle 2221" style="fill:none" d="M0 0h32v32H0z"/>
    </g>
</svg>
