<svg xmlns="http://www.w3.org/2000/svg" width="32" height="32" viewBox="0 0 32 32">
    <path data-name="Path 18916" d="M56.726 32.025a16 16 0 1 1 16.028-15.39 15.971 15.971 0 0 1-16.028 15.39m.061-5.338v-.044c.147.009.3.028.441.026 1.091-.014 2.182-.035 3.274-.049a8.816 8.816 0 0 0 3.089-.472 5.552 5.552 0 0 0 3.6-4.356 17.834 17.834 0 0 0 .229-3.342c.037-1.873.03-3.746 0-5.62a18.558 18.558 0 0 0-.229-2.592 5.475 5.475 0 0 0-4.6-4.628 18.849 18.849 0 0 0-2.691-.234q-2.882-.056-5.764-.012a19.253 19.253 0 0 0-3.176.214 5.471 5.471 0 0 0-4.63 4.862 19.037 19.037 0 0 0-.182 2.776c0 2.476-.091 4.954.075 7.43a6.534 6.534 0 0 0 1.166 3.6 5.92 5.92 0 0 0 4.757 2.334c1.546.067 3.094.07 4.642.1" transform="translate(-40.764 -.025)" style="fill:#fff"/>
    <path data-name="Path 18917" d="M52.622 20.623c-1.474-.021-2.95-.009-4.421-.077a4.9 4.9 0 0 1-2.675-.793 3.52 3.52 0 0 1-1.378-1.988 8 8 0 0 1-.261-2.139 951.639 951.639 0 0 1 0-7.365 8.849 8.849 0 0 1 .212-2.1 3.714 3.714 0 0 1 3.19-2.895 5.751 5.751 0 0 1 .745-.077c2.493-.028 4.987-.063 7.48-.067a18.964 18.964 0 0 1 2.293.146 3.8 3.8 0 0 1 2.656 1.417 3.678 3.678 0 0 1 .754 1.856 24.329 24.329 0 0 1 .165 2.5q.038 2.759 0 5.516a20.67 20.67 0 0 1-.163 2.547 3.647 3.647 0 0 1-3.131 3.3 22.242 22.242 0 0 1-3.706.19c-.587.014-1.176 0-1.765 0zm5.431-8.766a5.45 5.45 0 1 0-5.62 5.437 5.434 5.434 0 0 0 5.62-5.437m1.5-5.651a1.271 1.271 0 0 0-1.25-1.271 1.253 1.253 0 1 0 1.25 1.271" transform="translate(-36.601 4.116)" style="fill:#fff"/>
    <path data-name="Path 18918" d="M49.619 12.519a3.533 3.533 0 0 1-3.525-3.632 3.6 3.6 0 1 1 3.525 3.632" transform="translate(-33.673 7.027)" style="fill:#fff"/>
</svg>
