<svg xmlns="http://www.w3.org/2000/svg" width="20" height="14" viewBox="0 0 20 14">
    <g data-name="Group 3806">
        <path data-name="Rectangle 171" style="fill:#eceff1" d="M0 0h19.999v14H0z"/>
        <g data-name="Group 2996">
            <path data-name="Rectangle 172" transform="translate(.001)" style="fill:#f44336" d="M0 0h19.999v1.556H0z"/>
            <path data-name="Rectangle 173" transform="translate(.001 3.111)" style="fill:#f44336" d="M0 0h19.999v1.556H0z"/>
            <path data-name="Rectangle 174" transform="translate(.001 6.222)" style="fill:#f44336" d="M0 0h19.999v1.556H0z"/>
            <path data-name="Rectangle 175" transform="translate(.001 9.333)" style="fill:#f44336" d="M0 0h19.999v1.556H0z"/>
            <path data-name="Rectangle 176" transform="translate(.001 12.444)" style="fill:#f44336" d="M0 0h19.999v1.556H0z"/>
        </g>
        <path data-name="Rectangle 177" transform="translate(.001)" style="fill:#3f51b5" d="M0 0h9.545v7.778H0z"/>
        <g data-name="Group 2997">
            <path data-name="Path 2859" d="m3.432 12 .21.512.471.082-.341.4.081.562-.422-.265-.422.265.081-.562-.341-.4.471-.082z" transform="translate(-2.408 -10.963)" style="fill:#fff"/>
            <path data-name="Path 2860" d="m7.432 12 .21.512.471.082-.341.4.081.562-.422-.265-.422.265.081-.562-.341-.4.471-.082z" transform="translate(-4.59 -10.963)" style="fill:#fff"/>
            <path data-name="Path 2861" d="m11.432 12 .21.512.471.082-.341.4.081.562-.422-.265-.422.265.081-.562-.341-.4.471-.082z" transform="translate(-6.772 -10.963)" style="fill:#fff"/>
            <path data-name="Path 2862" d="m15.432 12 .21.512.471.082-.341.4.081.562-.422-.265-.422.265.081-.562-.341-.4.471-.082z" transform="translate(-8.954 -10.963)" style="fill:#fff"/>
            <path data-name="Path 2863" d="m19.182 12 .21.512.471.082-.341.4.081.562-.422-.265-.422.265.081-.562-.341-.4.471-.082z" transform="translate(-10.999 -10.963)" style="fill:#fff"/>
            <path data-name="Path 2864" d="m3.432 20 .21.512.471.082-.341.4.081.562-.422-.265-.422.265.081-.562-.341-.4.471-.082z" transform="translate(-2.408 -14.815)" style="fill:#fff"/>
            <path data-name="Path 2865" d="m7.432 20 .21.512.471.082-.341.4.081.562-.422-.265-.422.265.081-.562-.341-.4.471-.082z" transform="translate(-4.59 -14.815)" style="fill:#fff"/>
            <path data-name="Path 2866" d="m11.432 20 .21.512.471.082-.341.4.081.562-.422-.265-.422.265.081-.562-.341-.4.471-.082z" transform="translate(-6.772 -14.815)" style="fill:#fff"/>
            <path data-name="Path 2867" d="m15.432 20 .21.512.471.082-.341.4.081.562-.422-.265-.422.265.081-.562-.341-.4.471-.082z" transform="translate(-8.954 -14.815)" style="fill:#fff"/>
            <path data-name="Path 2868" d="m19.182 20 .21.512.471.082-.341.4.081.562-.422-.265-.422.265.081-.562-.341-.4.471-.082z" transform="translate(-10.999 -14.815)" style="fill:#fff"/>
            <path data-name="Path 2869" d="m4.432 16 .21.512.471.082-.341.4.081.562-.422-.265-.422.265.081-.562-.341-.4.471-.082z" transform="translate(-2.953 -12.889)" style="fill:#fff"/>
            <path data-name="Path 2870" d="m8.432 16 .21.512.471.082-.341.4.081.562-.422-.265-.422.265.081-.562-.341-.4.471-.082z" transform="translate(-5.135 -12.889)" style="fill:#fff"/>
            <path data-name="Path 2871" d="m12.432 16 .21.512.471.082-.341.4.081.562-.422-.265-.422.265.081-.562-.341-.4.471-.082z" transform="translate(-7.317 -12.889)" style="fill:#fff"/>
            <path data-name="Path 2872" d="m16.432 16 .21.512.471.082-.341.4.081.562-.422-.265-.422.265.081-.562-.341-.4.471-.082z" transform="translate(-9.499 -12.889)" style="fill:#fff"/>
            <path data-name="Path 2873" d="m20.182 16 .21.512.471.082-.341.4.081.562-.422-.265-.422.265.081-.562-.341-.4.471-.082z" transform="translate(-11.545 -12.889)" style="fill:#fff"/>
        </g>
    </g>
    <g data-name="Group 3805">
        <path data-name="Path 19105" d="M0 0h20v14H0z" style="fill:#006c35"/>
        <g data-name="Group 3804">
            <path data-name="Path 19103" d="M3251.794 4753.316h-.491c-.055.071-.14.156-.187.156a.4.4 0 0 1-.215-.218c0-.044.075-.13.143-.185v-.133h-8.9c-1.172 0-1.755-.01-2.148-.4h11.044v-.133c-.065-.052-.143-.139-.143-.184a.215.215 0 1 1 .43 0c0 .045-.079.132-.143.184v.133h1.5c.4 0 .566.034.566.4 0 .392-.105.464-.272.464a.279.279 0 0 1-.225-.085h-.583a.255.255 0 0 1-.379 0zm.379-.123h.514a.414.414 0 0 1 0-.256h-1.5v.133a.659.659 0 0 1 .116.123h.491a.254.254 0 0 1 .379 0z" transform="translate(-3236.388 -4742.729)" style="fill:#fff"/>
            <path data-name="Path 19104" d="M2605.79 1732.864c.031.037.049.071 0 .132-.049.043-.083.068-.136.111-.021.037-.037.1.034.114.136.037.386-.123.386-.126a.092.092 0 0 0 .031-.1c-.031-.031-.1-.013-.139-.018-.021 0-.034-.04 0-.1a.428.428 0 0 0 .059-.1c.018-.043 0-.074-.074-.1a.643.643 0 0 0-.191 0c-.046.009-.062.031-.071.083-.004.076.049.07.101.104zm-.586-1.908c-.043.059-.074.105.009.151s.217.163.161.3c-.031.105 0 .188.1.037a.413.413 0 0 0-.074-.466c-.088-.104-.144-.078-.2-.021zm2.6-2.154c.118.1.182.071.108-.1s-.17-.355-.247-.519-.105-.133-.2-.009-.117.213-.077.284c.2 1.614.3 2.457.321 2.945a1.484 1.484 0 0 1-.864 1.564c-.234.151-.5.324.065.192.527-.126 1.093-.46 1.093-1.735-.003-.961-.225-1.989-.203-2.624zm-.864-.327c-.064.1-.052.123.022.234a1.155 1.155 0 0 1 .139.518c0 .173.065.151.1-.009a1.257 1.257 0 0 0-.074-.67c-.103-.224-.137-.148-.189-.073zm.621 3.361a1.207 1.207 0 0 0-.256-.556l-.534-.744c-.052-.608-.129-1.259-.129-1.6.086.08.151 0 .108-.133s-.13-.488-.192-.639-.117-.114-.2.018-.127.195-.074.293a11.09 11.09 0 0 0 .2 1.676c-.173-.222-.333-.435-.481-.63-.009-.222-.031-.445-.043-.67.1.071.138.052.086-.08s-.16-.438-.213-.568-.086-.133-.16-.031c-.117.173-.151.293-.053.457.01.142.031.293.04.426-.1-.12-.179-.244-.256-.355.1.049.173-.031.065-.124a3.819 3.819 0 0 1-.383-.355c-.1-.111-.182-.111-.182-.009s.009.191 0 .284-.022.164.105.306c.246.284.481.578.706.852a19.428 19.428 0 0 1 .117 2.071c-.012.244-.1.386-.235.426s-.278-.04-.407-.222c-.235-.324-.318-.262-.5.022a6.255 6.255 0 0 0-.386.679c-.083.182-.235.346-.374.1a1.433 1.433 0 0 1-.139-.71c0-.194-.031-.346-.1-.04-.192.75-.074.913.139 1.074.265.226.352.244.49.053.278-.367.352-.692.513-.874.126-.142.126-.031.191.04a.732.732 0 0 0 .521.293c.226.04.63-.142.6-.852a57.794 57.794 0 0 0-.1-1.624c.213.284.4.537.555.741a4.424 4.424 0 0 1 .1 1.065c-.021.337.053.337.126-.009a4.015 4.015 0 0 0-.009-.793c.287.367.457.611.574.784.124.215.198.397.167-.042zm-2.926-.8c0-.071.034-.092.16-.194.108-.08.408-.284.5-.376s.17-.173.192-.058.031.151-.087.213a4.118 4.118 0 0 0-.521.3c-.108.085-.247.187-.247.116zm.034-1.25c-.021.093-.151.093-.139-.009a.909.909 0 0 0 0-.164.083.083 0 0 1 .148-.062 1.775 1.775 0 0 1 .2.376c.044.08.065.062.065-.049a1.767 1.767 0 0 1-.021-.346.278.278 0 0 1 .1-.163c.077-.049.117-.062.151.031s.083.09.052.163c-.043.1-.139-.1-.2.04a3.7 3.7 0 0 0-.009.488c0 .09-.043.222-.117.071a1.48 1.48 0 0 0-.233-.375zm-.737-.824c.151.071.312.114.195-.059a2.335 2.335 0 0 1-.278-.642c-.078-.2-.1-.191-.216-.019-.179.262-.019.519.021.821.151 1.086.3 2.194.343 2.488a2.083 2.083 0 0 1 .009.9c-.031.111.012.142.086.009a1.822 1.822 0 0 0 .065-1.309c-.052-.469-.225-1.707-.256-2.2m-.7-.031c.083.071.182.071.126-.08s-.1-.337-.148-.509-.087-.213-.151-.133-.127.123-.179.185a.21.21 0 0 0 0 .262 23.613 23.613 0 0 1 .278 2.784c.031.568.117.831-.256 1.216a1.68 1.68 0 0 1-.833.559c-.2.055-.287.135-.068.135a1.1 1.1 0 0 0 1.08-.5c.238-.25.352-.568.333-1.321-.029-1.327-.223-1.895-.189-2.604zm-2.679 3.879a1.821 1.821 0 0 1 .244-.142c.086-.043.151-.031.086.142-.065.2-.031.262.108.213s.2-.092.309-.133.2-.04.052.071a1.367 1.367 0 0 1-.383.234c-.213.049-.321-.031-.278-.195s.074-.213-.053-.16c-.157.054-.144-.005-.092-.036zm1.719-3.453c.04.123.1.182.126.031.021-.133.065-.173.087-.031s.117.123.139-.009.074-.2.1-.062a.418.418 0 0 1-.012.253.1.1 0 0 1-.16.031c-.074-.062-.1-.062-.148-.009-.117.1-.161.031-.182-.111-.022-.131.022-.18.043-.099zm.713 2.558a7.826 7.826 0 0 0-1.185-2.142 9.517 9.517 0 0 1-.031-.7c.1.1.161.04.13-.093a4.93 4.93 0 0 0-.277-.688c-.043-.111-.161-.142-.213.019-.077.194-.086.234.01.367a5.409 5.409 0 0 0 .064.608c-.117-.164-.269-.364-.386-.537.182.071.29.018.13-.142s-.386-.345-.525-.469-.2-.04-.179.071a1.271 1.271 0 0 1 .009.284c-.009.092.022.154.161.2.278.345.556.7.812 1.068.031.3.1.639.127.914a6.575 6.575 0 0 1 .108 1.858c-.087.274 0 .4.139-.022a3.2 3.2 0 0 0 .031-1.432c-.034-.241-.043-.547-.074-.83a11.545 11.545 0 0 1 1.034 1.725c.086.232.173.281.108-.063zm-.8-3.706c-.043.083-.074.142.01.2a.393.393 0 0 1 .16.407c-.031.142 0 .253.1.049a.72.72 0 0 0-.073-.629c-.099-.145-.151-.114-.203-.034zm-3.157 2.216a.375.375 0 0 0 .062.3.112.112 0 0 0 .194-.019c.031-.093.052-.1.117-.031s.318.009.2-.346c-.053-.142-.074-.111-.074.049 0 .256-.087.256-.183.013-.031-.093-.073-.093-.083.031 0 .231-.107.262-.172.027-.028-.102-.046-.185-.068-.03zm1.472.364c.222-.049.1-.071-.056-.163s-.222-.09-.213.012c.012.059.012.121.034.2.066-.027.142-.034.229-.056zm-.438-.5c.17-.235.448-.164.769.049s.191.55-.118.723a1.868 1.868 0 0 1-.29.12c.034.071-.009.092-.1.031a7.109 7.109 0 0 0-.9.355c.309.022 1.59 0 1.846-.031s.213.021.139.235-.16.182-.374.213a7.28 7.28 0 0 0-1.207.346c-.364.142-.234.395.139.527.287.071.256.1.2.266s-.043.191-.4.142a1.505 1.505 0 0 1-1.314-.945c-.531.719-1.055 1.117-1.546.994a.518.518 0 0 1-.383-.528 9.1 9.1 0 0 1-1.25.426c-.117.04-.213-.01-.052-.081a11 11 0 0 0 1.312-.732 3.04 3.04 0 0 1 .234-.62c.052-.111.086-.071.086.022 0 .071-.021.253-.012.385.077-.062.182-.12.234-.173.3-.253.63-.417.407-.821-.1-.185-.173-.315-.2-.4-.192-.071-.139-.173-.053-.346s.117-.213.287-.018c.247.275.278.4.108.376.265.648.2.985-.213 1.37a2.534 2.534 0 0 1-.63.466c-.021.173.053.346.392.293a1.963 1.963 0 0 0 1.163-1.043c-.1-.358-.309-1-.435-1.321-.064-.164 0-.235.053-.368s.1-.213.17-.027a5.262 5.262 0 0 1 .417 1.126c.117.519.1.963.374 1.207a1.078 1.078 0 0 0 .46.226c-.129-.346.139-.611.491-.732-.213-.194-.547-.163-.92-.182-.275-.012-.244-.043-.17-.275s.161-.265.365-.346c.278-.1.552-.2.843-.284-.185-.252-.068-.437.071-.628zm-1.345-2.083c-.074.071-.074.083-.009.172a.74.74 0 0 1 .126.528c-.01.1.012.2.065.022a1.213 1.213 0 0 0-.021-.59c-.061-.154-.125-.194-.168-.136zm-1.451.4a1.138 1.138 0 0 0 .191 1.269c.2.213.352.111.438-.123s.16-.444.225-.6.117-.12.105.022c-.031.284-.053.741.247.914s.756-.12.917-.426c.481.608.907.324.96-.266a2.134 2.134 0 0 0-.126-.688c-.052-.124-.022-.124.052-.062s.2.111.139-.093a.858.858 0 0 0-.278-.395c-.1-.093-.126-.04-.17.031s-.034.089-.1.141-.056.09 0 .2c.179.444.352 1.1.062 1.157-.265.049-.436-.5-.448-.741a2.543 2.543 0 0 0-.117-.772c-.047-.111-.074-.164-.1-.164-.043 0-.1.176-.145.244s0 .089.031.232c.16.713.138 1.037-.2 1.219s-.522.012-.522-.213a4.04 4.04 0 0 1 .022-.7c.022-.2.074-.231 0-.333s-.139-.071-.235.059a4.352 4.352 0 0 0-.5.984c-.074.235-.222.154-.33-.04a1.48 1.48 0 0 1-.065-.812c.035-.164.012-.239-.06-.05zm-.438-.173c.022-.062-.031-.123-.074-.031-.031.071-.043.12.022.163a.692.692 0 0 0 .045-.137zm-.256-.093c.13-.315.556-.275.439.133a.85.85 0 0 1-.083.222c.062.083.031.185-.1.164a1.838 1.838 0 0 1-.865.639c-.213.093-.244.022-.083-.071a2.887 2.887 0 0 0 .778-.67.348.348 0 0 1-.094-.422zm-.074 1.126c-.126.154-.222.377-.043.509.1.08.3-.009.374-.163s.043-.182-.083-.049c-.182.191-.365.018-.173-.244.121-.187.047-.23-.083-.057zm-.287 2.234a.613.613 0 0 1-.021.306c-.043.09 0 .133.065.019a.613.613 0 0 0 .074-.4c-.012-.1-.012-.133-.108-.173s-.138.019-.17.1c-.051.095.001.206.152.144zm-1.645-.67c-.191.049-.222-.021-.213-.133s.021-.142.151-.089a.5.5 0 0 1 .182.182c-.055.005-.093.027-.128.036zm.16-.457c-.191-.182-.352-.195-.513.031a.525.525 0 0 0-.126.457c.009.191-.031.262.126.315a.413.413 0 0 0 .312 0 3.89 3.89 0 0 0 .287-.092.371.371 0 0 1-.052.3c-.4.445-1 .771-1.272.475a.867.867 0 0 1-.169-.719c.043-.256-.043-.142-.074-.052a1.331 1.331 0 0 0 0 .935.665.665 0 0 0 .929.235c.457-.195.9-.541.886-1.016 0-.093-.012-.173-.012-.235.043-.021.117-.071.17-.093.012.163-.009.367 0 .528a.807.807 0 0 1-.383.815 2.282 2.282 0 0 1-.938.386c-.737.1-.907-.346-.9-.944 0-.093.043-.154.043-.287-.009-.253-.043-.213-.126.043a1.785 1.785 0 0 0 .074 1.278c.256.469 1.121.336 1.793.031a1.323 1.323 0 0 0 .7-1.463c0-.151-.012-.315-.021-.487.021-.009.031-.028.043-.04.1.3.543.213.682.04.074-.08.074-.089.139 0 .1.133.426.173.512-.009a1 1 0 0 0 .043-.518c-.022-.142-.056-.13-.151-.058s-.022.089-.01.191c.044.386-.309.355-.352-.04-.022-.244-.065-.151-.1-.04-.151.476-.59.568-.547.019.013-.16-.1-.111-.148-.049a1.3 1.3 0 0 1-.148.12c-.034-.444-.065-.954-.12-1.562.129.151.247-.022.16-.195-.062-.133-.16-.426-.222-.589s-.086-.111-.225.021-.1.173-.043.315a3.118 3.118 0 0 0 .055.7c.031.253.117.781.157 1.451-.062.031-.157.093-.222.124a1.039 1.039 0 0 0-.244-.325zm-2.293 1.29a2.087 2.087 0 0 1 .01.213 1.163 1.163 0 0 1-.062.231c-.13.438.062.651.17.487s.148-.142.139-.009c-.009.438-.448.466-.481.1a1.546 1.546 0 0 1 .13-.864c.022-.13.065-.232.087-.161zm-.225-.642a2.116 2.116 0 0 1 .907-.6c.13-.04.195-.09.195.031s0 .123-.108.154a3.837 3.837 0 0 0-.929.426c-.091.06-.199.131-.073-.014zm1.74-3.056a.255.255 0 0 0 .043.244.149.149 0 0 0 .213.022c.053-.062.053-.071.108.009.031.062.136.04.17-.022a.188.188 0 0 0 .022-.17c-.034-.071-.034-.052-.056.028-.019.132-.148.1-.157-.059s-.034-.071-.078.031c-.074.151-.178.12-.178-.012-.004-.114-.041-.206-.094-.074zm-.46 2.133c.034.367.139 1.046.139 1.281s.043.173.108.04a.938.938 0 0 0 .043-.469c-.022-.2-.034-.537-.077-.994a.769.769 0 0 0 .194-.222c.083-.154.105-.142.139-.022.061.244.318.407.66.173.321-.213.182-.661.043-1.148.117.021.16-.071.083-.191a.884.884 0 0 0-.148-.195c-.052-.061-.108-.111-.161-.049s-.1.111-.126.151-.034.08.01.182a2.985 2.985 0 0 1 .235.762c.034.164-.031.2-.148.2a.322.322 0 0 1-.343-.275 1.431 1.431 0 0 1-.083-.519.553.553 0 0 0-.087-.435c-.129-.164-.139-.132-.17-.052a.7.7 0 0 0-.021.376c.052.222.083.417.117.549a.506.506 0 0 1-.213.386c-.034-.306-.086-.713-.108-1.037.182-.062.086-.293-.065-.546-.1-.194-.148-.114-.222.009s-.021.173.031.275c-.043.08.031.2.065.426.009.142.043.547.074.9a.306.306 0 0 1-.287-.213.857.857 0 0 1-.034-.642c.055-.151.108-.386.012-.444s-.2.009-.278.121a1.376 1.376 0 0 0-.256.722 1.259 1.259 0 0 1-.1.4c-.043.083-.117.092-.195-.031a2.06 2.06 0 0 1-.158-.932c0-.124-.034-.142-.077 0a1.406 1.406 0 0 0-.052.389 1.971 1.971 0 0 0 .191.849c.117.222.269.173.374-.009.161-.275.1-.518.247-.926.086-.253.117-.059.086.093-.078.415-.057 1.073.551 1.064zm-.917-1.593c.108-.287.117-.54-.009-.447-.108.08-.173 0-.086-.093.1-.132.244-.173.278.053a.967.967 0 0 1-.19.484z" transform="translate(-2590 -1725)" style="fill:#fff"/>
        </g>
    </g>
</svg>
