<svg xmlns="http://www.w3.org/2000/svg" width="32" height="32.053" viewBox="0 0 32 32.053">
    <path data-name="Path 18913" d="M128.217 15.91a12.207 12.207 0 0 1-.259 3.3 15.811 15.811 0 0 1-2.689 6.115 16.175 16.175 0 0 1-4.3 4.11 16.229 16.229 0 0 1-9.594 2.585 16.159 16.159 0 0 1-7.03-2.074 15.983 15.983 0 0 1-6.718-7.382 15.691 15.691 0 0 1-1.26-4.594 15.766 15.766 0 0 1 .361-5.849 15.94 15.94 0 0 1 2.18-4.915 15.573 15.573 0 0 1 4.173-4.3A16.38 16.38 0 0 1 112.67.007a16.463 16.463 0 0 1 5.067.98 15.987 15.987 0 0 1 8.526 7.247 15.546 15.546 0 0 1 1.947 6.346c.035.439.007.885.007 1.329m-15.242 6.935c.014-.208.032-.354.032-.5 0-1.537-.023-3.075 0-4.612a15.513 15.513 0 0 1 .16-2.3 1.852 1.852 0 0 1 1.586-1.634 3.028 3.028 0 0 1 .925-.032 1.651 1.651 0 0 1 1.392 1.084 4.82 4.82 0 0 1 .245 1.836c.009 1.891 0 3.784 0 5.678 0 .157.016.314.028.513 1.246.009 2.446 0 3.687-.028v-.546c0-1.2.009-2.4 0-3.593s0-2.367-.051-3.549a6.407 6.407 0 0 0-.6-2.659 3.355 3.355 0 0 0-1.484-1.528 5.049 5.049 0 0 0-2.543-.472 3.779 3.779 0 0 0-3.225 1.725 1.565 1.565 0 0 1-.231.19c-.019-.578-.032-1.08-.046-1.565a18.436 18.436 0 0 0-3.507.037v11.95zm-9.716-12.014c-.12.469-.127 11.626-.012 12.01h3.593V10.831zM105 9.072a2.079 2.079 0 0 0 2.164-2.106A2.112 2.112 0 0 0 105 4.8a2.139 2.139 0 0 0-2.115 2.166A2.111 2.111 0 0 0 105 9.072" transform="translate(-96.24)" style="fill:#fff"/>
</svg>
