<svg xmlns="http://www.w3.org/2000/svg" width="20.211" height="16.625" viewBox="0 0 20.211 16.625">
  <g data-name="Icon ionic-ios-list">
    <path d="M3.063 8.312a1.531 1.531 0 11-1.531-1.531 1.531 1.531 0 011.531 1.531z" data-name="Path 20185"></path>
    <path d="M3.063 1.531A1.531 1.531 0 111.531 0a1.531 1.531 0 011.532 1.531z" data-name="Path 20186"></path>
    <path d="M3.063 15.093a1.531 1.531 0 11-1.532-1.531 1.531 1.531 0 011.532 1.531z" data-name="Path 20187"></path>
    <path d="M19.336 7.437H6.184a.875.875 0 000 1.75h13.152a.875.875 0 000-1.75z" data-name="Path 20188"></path>
    <path d="M19.336 14.218H6.184a.875.875 0 000 1.75h13.152a.875.875 0 000-1.75z" data-name="Path 20189"></path>
    <path d="M6.184 2.406h13.152a.875.875 0 000-1.75H6.184a.875.875 0 000 1.75z" data-name="Path 20190"></path>
  </g>
</svg>

