<svg xmlns="http://www.w3.org/2000/svg" width="161.198" height="64" data-name="Group 4375" viewBox="0 0 161.198 40">
  <defs>
    <clipPath id="clip-path">
      <path fill="none" d="M0 0H161.198V64H0z" data-name="Rectangle 2590"></path>
    </clipPath>
  </defs>
  <g clipPath="url(#clip-path)" data-name="Group 4375">
    <path
      fill="#fff"
      d="M.66 96.516a2.727 2.727 0 01-.66-.078l.078-.824a2.264 2.264 0 00.636.094.791.791 0 00.636-.247 1.316 1.316 0 00.212-.852v-3.777H2.6v2.874h.808v.815H2.6v.031a2.971 2.971 0 01-.083.738 1.867 1.867 0 01-.286.612 1.313 1.313 0 01-.6.451 2.585 2.585 0 01-.97.161M3.293 93.7h.947v.815h-.95zm.832 0h.947v.815h-.95zm.833 0H5.9v.815h-.947zm.832 0h.95v.815h-.954zm.833 0h.95v.815h-.954zm.832 0H8.4v.815h-.95zm.833 0h.95v.815h-.955zm.832 0h.95v.815h-.955zm.833 0h.95v.815h-.955zm.832 0h.947v.815h-.95zm.833 0h.95v.815h-.952zm.833 0h.95v.815h-.952zm.832 0h.95v.815h-.952zm.833 0h.95v.815h-.952zm.832 0h.95v.815h-.952zm.833 0h.95v.815h-.952zm.832 0h.945v.815h-.948zm.833 0h.95v.815h-.952zm.832 0h.95v.815h-.958zm.833 0h.95v.815H19.1zm.832 0h.95v.815h-.951zm.833 0h.95v.815h-.952zm.832 0h.95v.815H21.6zm.833 0h.95v.815h-.952zm.833 0h.95v.815h-.952zm.832.815a.538.538 0 01-.306-.118.335.335 0 010-.577.525.525 0 01.3-.12h.927v-2.868h1.036v2.874h.809v.815zm.267-4.7a.5.5 0 01.149-.357.487.487 0 01.361-.153.5.5 0 01.357.149.509.509 0 11-.868.361m.651-1.028a.5.5 0 01.149-.357.486.486 0 01.361-.153.51.51 0 01.511.51.5.5 0 01-.149.357.488.488 0 01-.362.153.51.51 0 01-.51-.51m.644 1.028a.511.511 0 011.021 0 .5.5 0 01-.15.357.484.484 0 01-.361.153.493.493 0 01-.357-.149.485.485 0 01-.154-.361m4.318 4.7h-3.235a.538.538 0 01-.306-.118.346.346 0 01-.165-.29.35.35 0 01.165-.287.525.525 0 01.306-.122h2.206a2.185 2.185 0 00-1.915-2.214v-.754l3.109-1.947v1.029l-1.916 1.154a2.865 2.865 0 011.291 1.1A3.609 3.609 0 0129.976 94zm.621-5.692v-.564a2.25 2.25 0 01.471.047.358.358 0 01-.2-.345.718.718 0 01.291-.569 1.33 1.33 0 01.863-.239 3.841 3.841 0 01.463.047l-.1.55a2.141 2.141 0 00-.424-.048q-.385 0-.385.267 0 .291.564.291h.479v.564zm.549.393h1.036v5.3h-1.044zm3.331 7.284q-.26 0-.557-.024a4.6 4.6 0 01-.463-.055l-.176-.022.063-.848a5.767 5.767 0 001.224.134q1.359 0 1.359-1.044v-.118h-.62q-2.1 0-2.1-1.818a1.888 1.888 0 012.073-1.971 5.244 5.244 0 01.828.066 4.026 4.026 0 01.616.138l.2.07v3.532a1.823 1.823 0 01-.6 1.417 2.7 2.7 0 01-1.853.545m1.453-2.795v-2.019a1.742 1.742 0 00-.746-.141.85.85 0 00-.683.294 1.135 1.135 0 00-.251.765q0 1.1 1.177 1.1zm8.9.815h-2.215a3.3 3.3 0 01-2.21-.6 2.189 2.189 0 01-.671-1.729 3.563 3.563 0 01.2-1.232l1.115-.181a2.96 2.96 0 00-.275 1.3 1.578 1.578 0 00.436 1.241 2.311 2.311 0 001.519.385h1.06v-2.874h1.036zm-3.47-4.734a.5.5 0 01.149-.357.486.486 0 01.361-.153.5.5 0 01.361.145.49.49 0 01.149.365.5.5 0 01-.145.361.522.522 0 01-.73 0 .5.5 0 01-.145-.361m1.254 0a.5.5 0 01.149-.357.486.486 0 01.361-.153.5.5 0 01.357.149.486.486 0 01.154.361.5.5 0 01-.149.357.508.508 0 01-.871-.357m3.477-.8h1.04v5.535h-1.04zm2.034 5.535v-.815h2.324a2.335 2.335 0 00-.486-1.421 2.521 2.521 0 00-1.366-.777l.251-.864a3.652 3.652 0 011.971 1.142 3.411 3.411 0 01.651 2.218v.518z"
      data-name="Path 20240"
      transform="translate(0 -32.516)"
    ></path>
    <path
      fill="#fff"
      d="M0 0H1.036V5.535H0z"
      data-name="Rectangle 2581"
      transform="translate(52.556 56.471)"
    ></path>
    <path
      fill="#fff"
      d="M86.221 97.789a2.727 2.727 0 01-.66-.078l.078-.824a2.264 2.264 0 00.636.094.791.791 0 00.636-.251 1.317 1.317 0 00.212-.851v-3.774h1.037v2.873h.81v.815h-.81v.031a2.975 2.975 0 01-.083.738 1.873 1.873 0 01-.286.612 1.313 1.313 0 01-.6.451 2.585 2.585 0 01-.97.161m1.033-6.323a.53.53 0 11.381.161.521.521 0 01-.381-.161"
      data-name="Path 20241"
      transform="translate(-31.923 -33.789)"
    ></path>
    <path
      fill="#fff"
      d="M90.672 95.831h.95v.815h-.95zm.832 0h.95v.815H91.5zm.833 0h.95v.815h-.95zm.833 0h.95v.815h-.95zm.832 0h.952v.815H94zm.833 0h.95v.815h-.95zm.832 0h.95v.815h-.95zm.833 0h.95v.815h-.95zm.832 0h.95v.815h-.95zm.833 0h.95v.815h-.95zm.832 0h.95v.815h-.95zm.833 0h.95v.815h-.95zm.832 0h.95v.815h-.951zm.833 0h.95v.815h-.95zm.833 0h.95v.815h-.95zm.832 0h.95v.815h-.95zm.833 0h.95v.815h-.95zm.832 0h.95v.815h-.95zm.833 0h.95v.815h-.95zm.832 0h.95v.815h-.95zm.833 0h.95v.815h-.95zm.832 0h.95v.815h-.95zm.833 0h.95v.815h-.95zm.832 0h.95v.815h-.95zm.833 0h.95v.815h-.95zm.833 0h.95v.815h-.95zm.832 0h.948v.815h-.95zm.833 0h.95v.815h-.95zm.832 0h.95v.815h-.95zm.833 0h.95v.815h-.95zm.832 0h.95v.815h-.949zm.833 0h.95v.815h-.95zm.832 0h.95v.815h-.95zm.833 0h.952v.815h-.95zm.833 0h.95v.815h-.95zm.832 0h.95v.815h-.95zm.833 0h.95v.815h-.95zm.832 0h.95v.815h-.95zm5.253.815H122.3a.539.539 0 01-.307-.117.335.335 0 010-.577.53.53 0 01.307-.122h.6a1.647 1.647 0 01.236.016 1.077 1.077 0 01.157.031l.047.008a1.3 1.3 0 01-.439-1.123 1.871 1.871 0 01.538-1.355 2 2 0 011.5-.553 1.733 1.733 0 011.335.475 1.885 1.885 0 01.439 1.331zm-1.013-.815v-1.044q0-1.115-.84-1.115a.853.853 0 00-.683.295 1.138 1.138 0 00-.251.765 1.088 1.088 0 00.286.828 1.259 1.259 0 00.891.271z"
      data-name="Path 20242"
      transform="translate(-33.829 -34.642)"
    ></path>
    <path
      fill="#fff"
      d="M5.782 67.987v7.732H3.429v-7.732H.678v-2.006h7.856v2.006z"
      data-name="Path 20243"
      transform="translate(-.253 -24.617)"
    ></path>
    <path
      fill="#fff"
      d="M29.85 75.717v-4.075h-3.8v4.075H23.7v-9.74h2.352v3.687h3.8v-3.687H32.2v9.74z"
      data-name="Path 20244"
      transform="translate(-8.842 -24.616)"
    ></path>
    <path fill="#fff" d="M0 0H2.367V9.74H0z" data-name="Rectangle 2582" transform="translate(30.869 41.361)"></path>
    <path
      fill="#fff"
      d="M69.385 75.562a6.5 6.5 0 01-2.118-.33 4.494 4.494 0 01-1.644-.97 4.382 4.382 0 01-1.059-1.567 5.591 5.591 0 01-.376-2.126 5.067 5.067 0 01.4-2.036 4.662 4.662 0 011.107-1.582 5.03 5.03 0 011.679-1.025 6.194 6.194 0 014.189 0 5.02 5.02 0 011.661 1.017 4.584 4.584 0 011.094 1.567 5.062 5.062 0 01.392 2.015 4.289 4.289 0 01-.125 1.053 4.17 4.17 0 01-.33.888 3.844 3.844 0 01-.468.708 3.7 3.7 0 01-.523.516v.045l2.05-.041v1.871zm2.834-4.962a3.332 3.332 0 00-.2-1.169 2.672 2.672 0 00-.564-.922 2.538 2.538 0 00-.873-.6 2.855 2.855 0 00-1.115-.213 2.768 2.768 0 00-1.094.213 2.624 2.624 0 00-.873.6 2.712 2.712 0 00-.578.922 3.237 3.237 0 00-.206 1.169 3.473 3.473 0 00.2 1.2 2.748 2.748 0 00.564.933 2.508 2.508 0 00.867.6 2.965 2.965 0 002.208 0 2.563 2.563 0 00.878-.6 2.788 2.788 0 00.578-.936 3.373 3.373 0 00.209-1.2"
      data-name="Path 20245"
      transform="translate(-23.948 -24.461)"
    ></path>
    <path
      fill="#fff"
      d="M92.58 75.717v-9.74h6.549v1.981h-4.28V69.8h4.045v1.884h-4.045v2.022h4.526v2.006z"
      data-name="Path 20246"
      transform="translate(-34.541 -24.616)"
    ></path>
    <path
      fill="#fff"
      d="M114.68 75.717v-9.74h6.549v1.981h-4.279V69.8h4.045v1.884h-4.045v2.022h4.526v2.006z"
      data-name="Path 20247"
      transform="translate(-42.787 -24.616)"
    ></path>
    <path
      fill="#fff"
      d="M136.78 75.717v-9.74h2.367v7.69h3.769v2.05z"
      data-name="Path 20248"
      transform="translate(-51.032 -24.616)"
    ></path>
    <path
      fill="#fff"
      d="M0 0H6.171V4.541H0z"
      data-name="Rectangle 2583"
      transform="translate(35.282 32.627)"
    ></path>
    <path
      fill="#fff"
      d="M0 0H6.171V4.541H0z"
      data-name="Rectangle 2584"
      transform="translate(27.816 32.627)"
    ></path>
    <path fill="#fff" d="M0 0H6.171V4.542H0z" data-name="Rectangle 2585" transform="translate(51.767 9.762)"></path>
    <path fill="#fff" d="M0 0H6.171V4.542H0z" data-name="Rectangle 2586" transform="translate(59.234 9.762)"></path>
    <path fill="#fff" d="M0 0H6.171V4.542H0z" data-name="Rectangle 2587" transform="translate(84.924 3.844)"></path>
    <path fill="#fff" d="M0 0H6.171V4.542H0z" data-name="Rectangle 2588" transform="translate(88.556 9.762)"></path>
    <path
      fill="#fff"
      d="M88.977 22.446v9.341q0 .845-.574.964H68.358v-5.567a8.222 8.222 0 00-.191-1.9 3.523 3.523 0 00-.606-1.337 2.923 2.923 0 00-1.06-.855 5.433 5.433 0 00-1.574-.453 12.518 12.518 0 00-1.244-.147q-.686-.048-1.531-.049h-6.629q-.956 0-1.7.049a10.554 10.554 0 00-1.254.147 4.843 4.843 0 00-1.483.463 2.888 2.888 0 00-1.021.878 3.665 3.665 0 00-.582 1.347 8.311 8.311 0 00-.184 1.858v5.561H38.795a.924.924 0 01-.512-.964v-9.339h-6.171v9.3a.873.873 0 01-.622.964 1.09 1.09 0 01-.318.02c-.192 0-.431 0-.718.009l-.454.01h-9.4V17.924h-6.139v19.031q0 .846-.574.964H7.714q-.589-.118-.59-.964V22.446H.953V43.03H14.4a17.373 17.373 0 003.173-.236 4.876 4.876 0 001.411-.511 2.738 2.738 0 00.94-.885 3.833 3.833 0 00.518-1.337 9.317 9.317 0 00.159-1.828v-.376h12.781v-.01c.172 0 .337-.006.484-.01a5.383 5.383 0 001.02-.1 2.8 2.8 0 002.361-1.4q.718 1.514 3.429 1.514h29.835v-.006l4.657-.006v.012h13.745c.446 0 .853-.013 1.242-.031h.083a13.848 13.848 0 001.849-.2 4.869 4.869 0 001.413-.51 2.723 2.723 0 00.94-.885 3.808 3.808 0 00.518-1.337 9.311 9.311 0 00.159-1.829V22.446zm-26.79 9.38a1.571 1.571 0 01-.1.668q-.095.2-.685.256h-5.434a.512.512 0 01-.407-.246 1.792 1.792 0 01-.088-.678v-3.305a.878.878 0 01.893-1h5.262q.558.177.558 1z"
      data-name="Path 20249"
      transform="translate(-.356 -6.687)"
    ></path>
    <path fill="#fff" d="M0 0H6.171V4.542H0z" data-name="Rectangle 2589" transform="translate(81.094 9.762)"></path>
    <path
      fill="#fff"
      d="M236.847 77.022v.468h-.357c.033-.144.063-.283.095-.428a.8.8 0 01.193-.041.367.367 0 01.07 0"
      data-name="Path 20250"
      transform="translate(-88.233 -28.736)"
    ></path>
    <path
      fill="#fff"
      d="M237.055 72.753v.376l-.008-.008c0-.119.008-.243.008-.365"
      data-name="Path 20251"
      transform="translate(-88.441 -27.144)"
    ></path>
    <path
      fill="#fff"
      d="M214.9 95.126a13.69 13.69 0 01-.731.021c-.176 0-.349-.008-.521-.016a.831.831 0 01.357-.251.82.82 0 01.6.024l.029.013a.815.815 0 01.263.209"
      data-name="Path 20252"
      transform="translate(-79.713 -35.383)"
    ></path>
    <path
      fill="#fff"
      d="M220.767 94.1c-.414.135-.833.255-1.264.353a.8.8 0 01.3-.382.827.827 0 01.587-.131h.029a.833.833 0 01.341.156"
      data-name="Path 20253"
      transform="translate(-81.896 -35.045)"
    ></path>
    <path
      fill="#fff"
      d="M209.021 94.565a11.974 11.974 0 01-1.142-.3.847.847 0 01.365-.125.826.826 0 01.583.185l.016.012a.746.746 0 01.177.218"
      data-name="Path 20254"
      transform="translate(-77.559 -35.124)"
    ></path>
    <path
      fill="#fff"
      d="M236.208 77.77c-.07.313-.148.616-.238.92a.835.835 0 01-.234-.509.9.9 0 01.078-.411z"
      data-name="Path 20255"
      transform="translate(-87.952 -29.016)"
    ></path>
    <path
      fill="#fff"
      d="M226.2 91.555q-.564.37-1.154.69a.815.815 0 01.743-.764h.016a.847.847 0 01.394.074"
      data-name="Path 20256"
      transform="translate(-83.965 -34.131)"
    ></path>
    <path
      fill="#fff"
      d="M230.821 87.675c-.3.345-.62.67-.952.981a.792.792 0 01.063-.534.8.8 0 01.464-.415.835.835 0 01.263-.045 1.066 1.066 0 01.16.016"
      data-name="Path 20257"
      transform="translate(-85.755 -32.705)"
    ></path>
    <path
      fill="#fff"
      d="M234.268 82.734c-.2.414-.431.815-.673 1.211a.82.82 0 01.242-1.066l.013-.008a.815.815 0 01.414-.135"
      data-name="Path 20258"
      transform="translate(-87.115 -30.868)"
    ></path>
    <path
      fill="#fff"
      d="M195.229 84.413v.021a.518.518 0 010 .082c-.094-.156-.192-.313-.283-.472h.152a.84.84 0 01.135.369"
      data-name="Path 20259"
      transform="translate(-72.732 -31.356)"
    ></path>
    <path
      fill="#fff"
      d="M203.528 92.456a15.56 15.56 0 01-.944-.538.8.8 0 01.324 0 .815.815 0 01.517.333l.008.013a.758.758 0 01.095.193"
      data-name="Path 20260"
      transform="translate(-75.583 -34.287)"
    ></path>
    <path
      fill="#fff"
      d="M198.8 88.954a12.397 12.397 0 01-.69-.686.933.933 0 01.238.07.829.829 0 01.41.448l.009.024a.594.594 0 01.033.14"
      data-name="Path 20261"
      transform="translate(-73.914 -32.932)"
    ></path>
    <path
      fill="#fff"
      d="M195 83.878h-.152c-.053-.095-.111-.185-.16-.279a.677.677 0 01.164.107.839.839 0 01.148.172"
      data-name="Path 20262"
      transform="translate(-72.639 -31.19)"
    ></path>
    <path
      fill="#fff"
      d="M233.8 61.177a.8.8 0 01-.448-.193.815.815 0 01-.283-.564v-.053a.8.8 0 01.053-.3c.243.357.468.727.678 1.1"
      data-name="Path 20263"
      transform="translate(-86.959 -22.412)"
    ></path>
    <path
      fill="#fff"
      d="M236.083 66.637a.807.807 0 01-.423-.313.82.82 0 01-.131-.6v-.017a.769.769 0 01.169-.353 13.164 13.164 0 01.382 1.285"
      data-name="Path 20264"
      transform="translate(-87.871 -24.383)"
    ></path>
    <path
      fill="#fff"
      d="M236.824 72.156h-.324a.328.328 0 01-.025-.058.823.823 0 01.021-.6l.013-.029a.777.777 0 01.275-.313c.021.332.037.665.037 1"
      data-name="Path 20265"
      transform="translate(-88.211 -26.547)"
    ></path>
    <path
      fill="#fff"
      d="M230.15 56.537a.851.851 0 01-.431-.074.834.834 0 01-.419-.472.82.82 0 01-.041-.255V55.7c.308.267.6.546.891.838"
      data-name="Path 20266"
      transform="translate(-85.536 -20.781)"
    ></path>
    <path
      fill="#fff"
      d="M192.64 66.832a.828.828 0 01-.168.564c.045-.209.1-.423.155-.632a.456.456 0 01.013.07"
      data-name="Path 20267"
      transform="translate(-71.811 -24.909)"
    ></path>
    <path
      fill="#fff"
      d="M191.963 72.658h-.063v-.16c.013.028.029.057.041.086a.519.519 0 01.016.074"
      data-name="Path 20268"
      transform="translate(-71.597 -27.049)"
    ></path>
    <path
      fill="#fff"
      d="M194.789 61.41a.289.289 0 010 .063.82.82 0 01-.3.489c.1-.185.2-.37.3-.55"
      data-name="Path 20269"
      transform="translate(-72.562 -22.912)"
    ></path>
    <path
      fill="#fff"
      d="M225.386 53.014a.805.805 0 01-.382.021.793.793 0 01-.517-.333l-.013-.012a1.03 1.03 0 01-.1-.226c.349.169.686.354 1.014.55"
      data-name="Path 20270"
      transform="translate(-83.712 -19.574)"
    ></path>
    <path
      fill="#fff"
      d="M198.274 56.773a.555.555 0 01-.029.078.818.818 0 01-.435.4c.152-.164.3-.324.464-.48"
      data-name="Path 20271"
      transform="translate(-73.802 -21.182)"
    ></path>
    <path
      fill="#fff"
      d="M214.044 50.177a1.032 1.032 0 01-.234.132.841.841 0 01-.627-.037.706.706 0 01-.107-.063c.292-.021.583-.033.883-.033h.087"
      data-name="Path 20272"
      transform="translate(-79.498 -18.72)"
    ></path>
    <path
      fill="#fff"
      d="M219.9 50.851a.886.886 0 01-.32.09.815.815 0 01-.591-.193h-.008a1 1 0 01-.125-.144c.353.07.7.152 1.047.251"
      data-name="Path 20273"
      transform="translate(-81.653 -18.879)"
    ></path>
    <path
      fill="#fff"
      d="M208.239 50.918a.847.847 0 01-.152.14.8.8 0 01-.591.131h-.021c-.02 0-.041-.013-.057-.016.271-.091.546-.177.825-.251"
      data-name="Path 20274"
      transform="translate(-77.385 -18.997)"
    ></path>
    <path
      fill="#fff"
      d="M202.859 53.184a.737.737 0 01-.078.111.819.819 0 01-.538.283h-.025q.313-.209.641-.394"
      data-name="Path 20275"
      transform="translate(-75.447 -19.843)"
    ></path>
    <path
      fill="#fff"
      d="M236.349 77.089c-.029.144-.063.283-.095.427h-.394a.94.94 0 01.115-.181v-.008a.735.735 0 01.365-.238"
      data-name="Path 20276"
      transform="translate(-87.999 -28.762)"
    ></path>
    <path
      fill="#fff"
      d="M236.869 72.753c0 .125 0 .246-.008.365a.82.82 0 01-.313-.365z"
      data-name="Path 20277"
      transform="translate(-88.255 -27.144)"
    ></path>
    <path
      fill="#fff"
      d="M191.928 73.278l-.008.016c0-.181-.013-.361-.013-.542h.063a.777.777 0 01-.041.525"
      data-name="Path 20278"
      transform="translate(-71.6 -27.144)"
    ></path>
    <path
      fill="#010101"
      d="M161.668 47.554h-.743v-.185z"
      data-name="Path 20279"
      transform="translate(-60.04 -17.673)"
    ></path>
    <path
      fill="#fff"
      d="M217.654 69.239l-.095-.095a.758.758 0 01.058.054c.013.012.024.028.037.041"
      data-name="Path 20280"
      transform="translate(-81.17 -25.797)"
    ></path>
    <path
      fill="#fff"
      d="M216.687 77.77a6.274 6.274 0 01-10.876 0h.14a6.222 6.222 0 00.854 1.08 6.066 6.066 0 008.581 0 6.222 6.222 0 00.854-1.08z"
      data-name="Path 20281"
      transform="translate(-76.787 -29.016)"
    ></path>
    <path
      fill="#fff"
      d="M216.656 69.008v-.063a6.068 6.068 0 10-12.136 0v.063h-.073a6.292 6.292 0 1112.584 0z"
      data-name="Path 20282"
      transform="translate(-76.279 -23.399)"
    ></path>
    <path
      fill="#fff"
      d="M223.54 75.261a6.134 6.134 0 01-.644 1.572h-.448a6.071 6.071 0 00.694-1.572z"
      data-name="Path 20283"
      transform="translate(-82.994 -28.08)"
    ></path>
    <path
      fill="#fff"
      d="M205.563 76.834h-.14a6.152 6.152 0 01-.644-1.572h.09a6.081 6.081 0 00.694 1.572"
      data-name="Path 20284"
      transform="translate(-76.402 -28.08)"
    ></path>
    <path
      fill="#fff"
      d="M224.158 72.753a6.244 6.244 0 01-.209 1.572h-.4a6.014 6.014 0 00.229-1.572z"
      data-name="Path 20285"
      transform="translate(-83.406 -27.144)"
    ></path>
    <path
      fill="#fff"
      d="M204.742 74.325h-.09a6.223 6.223 0 01-.209-1.572h.074a5.987 5.987 0 00.226 1.572"
      data-name="Path 20286"
      transform="translate(-76.276 -27.144)"
    ></path>
    <path
      fill="#fff"
      d="M210.809 69.2l-.087.087a.442.442 0 01.063-.063l.024-.021"
      data-name="Path 20287"
      transform="translate(-78.62 -25.818)"
    ></path>
    <path
      fill="#fff"
      d="M233.656 85.88l-.024.033a15.636 15.636 0 01-1.347 1.721l-.054.063-.028-.078-.181-.517a.824.824 0 00-.419-.468 1.165 1.165 0 00-.2-.066 14.145 14.145 0 001.416-1.893c.013.021.021.045.037.07l.673.99a.556.556 0 00.05.063.332.332 0 00.053.058z"
      data-name="Path 20288"
      transform="translate(-86.334 -31.59)"
    ></path>
    <path
      fill="#fff"
      d="M236.725 80.183l-.013.041c-.119.345-.255.686-.394 1.022s-.3.665-.464.99l-.037.073-.05-.07-.308-.456a.806.806 0 00-.525-.341.653.653 0 00-.2-.013 14.441 14.441 0 00.866-2.194.64.64 0 00.049.053l.907.784.063.05.063.045z"
      data-name="Path 20289"
      transform="translate(-87.578 -29.562)"
    ></path>
    <path
      fill="#fff"
      d="M211.871 95.125a.926.926 0 00-.115.168l-.522 1.08a.488.488 0 00-.029.074.24.24 0 00-.024.074l-.013.041h-.037a15.715 15.715 0 01-2.168-.303l-.082-.016.053-.063.365-.419a.828.828 0 00.2-.6.842.842 0 00-.107-.34 14.09 14.09 0 002.48.308"
      data-name="Path 20290"
      transform="translate(-77.933 -35.376)"
    ></path>
    <path
      fill="#fff"
      d="M200.646 90.971a.829.829 0 00-.3.125l-.99.671a.319.319 0 00-.063.049.383.383 0 00-.057.053l-.029.029-.033-.024c-.3-.2-.6-.419-.883-.641s-.564-.464-.838-.706l-.063-.053.078-.029.521-.181a.83.83 0 00.468-.419.815.815 0 00.07-.485 14.457 14.457 0 002.115 1.609"
      data-name="Path 20291"
      transform="translate(-73.648 -33.341)"
    ></path>
    <path
      fill="#fff"
      d="M229.268 90.658l-.029.024q-.412.357-.849.69c-.292.218-.592.427-.9.627l-.07.041-.008-.082-.041-.55a.823.823 0 00-.283-.564.8.8 0 00-.2-.125 14.459 14.459 0 001.872-1.474.692.692 0 00.021.094l.394 1.133a.689.689 0 00.033.074.4.4 0 00.033.07z"
      data-name="Path 20292"
      transform="translate(-84.654 -33.297)"
    ></path>
    <path
      fill="#fff"
      d="M205.964 93.764a.815.815 0 00-.2.16l-.784.908-.05.063a.572.572 0 00-.041.07l-.021.037-.041-.016a14.598 14.598 0 01-2.012-.854l-.074-.037.07-.05.46-.308a.827.827 0 00.345-.526.85.85 0 00-.033-.419 14.017 14.017 0 002.377.977"
      data-name="Path 20293"
      transform="translate(-75.643 -34.619)"
    ></path>
    <path
      fill="#fff"
      d="M223.853 94.215l-.037.016a15.386 15.386 0 01-2.031.824l-.078.024.017-.082.1-.542a.807.807 0 00-.125-.616.872.872 0 00-.181-.188 14.058 14.058 0 002.213-.94.572.572 0 000 .119l.087 1.195a.492.492 0 00.008.078.507.507 0 00.021.082z"
      data-name="Path 20294"
      transform="translate(-82.649 -34.589)"
    ></path>
    <path
      fill="#fff"
      d="M217.968 94.765a.9.9 0 00-.041.144l-.226 1.179c0 .029-.008.053-.012.082a.463.463 0 000 .078v.041l-.041.008c-.354.066-.715.125-1.076.168s-.727.074-1.092.095h-.082l.037-.073.238-.5a.815.815 0 00.036-.627.837.837 0 00-.152-.263 14.068 14.068 0 002.414-.337"
      data-name="Path 20295"
      transform="translate(-80.363 -35.356)"
    ></path>
    <path
      fill="#fff"
      d="M196.271 86.974a.845.845 0 00-.39.033l-1.133.394c-.024.008-.049.021-.073.029a.374.374 0 00-.07.037l-.037.021-.024-.029q-.357-.413-.69-.85t-.627-.9l-.045-.063.082-.008.55-.041a.811.811 0 00.759-.8 14.09 14.09 0 001.7 2.176"
      data-name="Path 20296"
      transform="translate(-72.075 -31.639)"
    ></path>
    <path
      fill="#fff"
      d="M238.175 69.964l-.074-.037-.5-.238a.821.821 0 00-.627-.037.79.79 0 00-.193.1 14.34 14.34 0 00-.365-2.353.706.706 0 00.1.033l1.178.221a.287.287 0 00.082.013.471.471 0 00.078 0h.041l.008.041c.063.353.125.715.169 1.08s.074.723.095 1.088z"
      data-name="Path 20297"
      transform="translate(-88.207 -25.147)"
    ></path>
    <path
      fill="#fff"
      d="M233.574 58.057h-.087l-.546.041a.822.822 0 00-.564.283.776.776 0 00-.144.246 14.668 14.668 0 00-1.556-1.905.815.815 0 00.2-.037L232 56.3a.72.72 0 00.074-.028l.07-.037.037-.021.025.029q.357.413.69.849t.627.9z"
      data-name="Path 20298"
      transform="translate(-86.063 -20.972)"
    ></path>
    <path
      fill="#fff"
      d="M229.419 53.316l-.078.024-.518.181a.838.838 0 00-.472.419.847.847 0 00-.078.337 13.691 13.691 0 00-1.646-1.232v-.464l.825-.564a.26.26 0 00.066-.05.354.354 0 00.057-.053l.029-.029.033.024c.3.206.6.419.883.644s.57.46.838.7z"
      data-name="Path 20299"
      transform="translate(-84.554 -19.358)"
    ></path>
    <path
      fill="#fff"
      d="M236.648 63.787l-.082-.016-.542-.1a.826.826 0 00-.616.125.867.867 0 00-.177.172 14.007 14.007 0 00-.985-2.2.645.645 0 00.152 0l1.191-.087a.429.429 0 00.078-.008.362.362 0 00.078-.021l.041-.008.016.037c.16.325.308.657.448 1s.258.681.376 1.031z"
      data-name="Path 20300"
      transform="translate(-87.395 -22.998)"
    ></path>
    <path
      fill="#fff"
      d="M193.03 61.865a14.088 14.088 0 00-1.108 2.8.829.829 0 00-.267-.493l-.911-.784-.063-.049a.545.545 0 00-.07-.045l-.033-.021.013-.037q.179-.517.394-1.022c.139-.337.3-.665.46-.989l.041-.074.045.07.313.46a.839.839 0 00.526.345.818.818 0 00.611-.125l.016-.013a.167.167 0 00.029-.024"
      data-name="Path 20301"
      transform="translate(-71.104 -22.817)"
    ></path>
    <path
      fill="#fff"
      d="M194.413 59.318a.865.865 0 00.008-.107.8.8 0 00-.14-.452l-.673-.989a.339.339 0 00-.045-.066.7.7 0 00-.057-.057l-.029-.029.024-.033c.206-.3.419-.6.644-.883s.46-.564.7-.838l.058-.063.024.078.181.518a.808.808 0 00.414.468.836.836 0 00.362.082.883.883 0 00.266-.045l.021-.008a.02.02 0 00.016-.009 14.606 14.606 0 00-1.782 2.427"
      data-name="Path 20302"
      transform="translate(-72.185 -20.82)"
    ></path>
    <path
      fill="#fff"
      d="M217.738 48.022l-.053.063-.361.419a.823.823 0 00-.2.6.8.8 0 00.152.419 14.093 14.093 0 00-2.652-.266.815.815 0 00.238-.288l.521-1.08c.013-.024.021-.05.033-.074a.465.465 0 00.02-.074l.013-.041h.041c.365.024.727.063 1.088.115s.723.115 1.076.188z"
      data-name="Path 20303"
      transform="translate(-80.076 -17.796)"
    ></path>
    <path
      fill="#fff"
      d="M198.27 54.84a.815.815 0 00.008-.55l-.394-1.133c-.008-.024-.02-.053-.028-.074a.572.572 0 00-.037-.07l-.019-.037.029-.025q.412-.356.849-.69c.292-.218.591-.427.9-.624l.07-.045v.082l.041.55a.822.822 0 00.878.76 14.088 14.088 0 00-2.3 1.856"
      data-name="Path 20304"
      transform="translate(-73.798 -19.249)"
    ></path>
    <path
      fill="#fff"
      d="M211.457 49.268a14.208 14.208 0 00-2.726.435.787.787 0 00.2-.386l.226-1.179a1.574 1.574 0 00.013-.16v-.043l.041-.008c.357-.063.715-.125 1.08-.169s.722-.073 1.088-.094h.082l-.033.074-.243.5a.841.841 0 00-.037.627.823.823 0 00.313.406"
      data-name="Path 20305"
      transform="translate(-77.877 -17.782)"
    ></path>
    <path
      fill="#fff"
      d="M203.239 51.552a.8.8 0 00.125-.488l-.09-1.195a.482.482 0 00-.008-.078c0-.028-.012-.053-.016-.082l-.013-.036.037-.017c.325-.16.661-.308 1-.448s.681-.258 1.031-.369l.078-.029-.016.082-.1.542a.815.815 0 00.6.945 13.822 13.822 0 00-2.615 1.17"
      data-name="Path 20306"
      transform="translate(-75.827 -18.21)"
    ></path>
    <path
      fill="#fff"
      d="M223.787 49.89l-.07.045-.456.313a.815.815 0 00-.34.525.832.832 0 00.02.39 13.625 13.625 0 00-2.414-.919.834.834 0 00.243-.193l.784-.907.049-.063c.017-.024.029-.045.045-.07l.017-.037.041.016q.517.179 1.022.394c.337.14.665.3.989.46z"
      data-name="Path 20307"
      transform="translate(-82.276 -18.272)"
    ></path>
    <path
      fill="#fff"
      d="M226.393 53v.464a7.148 7.148 0 00-.4-.246.863.863 0 00.234-.107z"
      data-name="Path 20308"
      transform="translate(-84.318 -19.772)"
    ></path>
    <path
      fill="#fff"
      d="M191.282 67.591a14.124 14.124 0 00-.349 2.964.834.834 0 00-.376-.386l-1.08-.522a.489.489 0 00-.075-.031.259.259 0 00-.073-.024l-.041-.013v-.041c.024-.365.063-.731.115-1.088s.115-.722.188-1.076l.016-.082.063.054.419.361a.806.806 0 00.6.193.785.785 0 00.559-.279l.021-.024s0-.008.008-.013"
      data-name="Path 20309"
      transform="translate(-70.622 -25.107)"
    ></path>
    <path
      fill="#fff"
      d="M210.829 22.018l-.784-3.145-.789-3.145-1.572-6.29h-19.153l.279-.521 5.588-4.2h13.631V0h-3.145v1.572h-24.462l-4.914 7.862h-7.774a8.49 8.49 0 00-8.486 8.486V44.2a8.486 8.486 0 008.486 8.486h13.889c-.053-.095-.111-.185-.16-.279a.722.722 0 01.164.107.855.855 0 01.147.172.836.836 0 01.136.369v.021a.517.517 0 010 .082 14.128 14.128 0 001.7 2.176.957.957 0 01.238.07.829.829 0 01.411.448l.008.025a.6.6 0 01.033.14 14.419 14.419 0 002.114 1.609.787.787 0 01.325 0 .811.811 0 01.517.332l.008.013a.778.778 0 01.095.193 14.017 14.017 0 002.377.977.8.8 0 01.948.063l.017.013a.743.743 0 01.176.218 14.032 14.032 0 002.48.308.836.836 0 01.357-.251.821.821 0 01.6.024l.029.013a.815.815 0 01.263.209 14.191 14.191 0 002.414-.337.8.8 0 01.3-.382.832.832 0 01.587-.132h.029a.83.83 0 01.34.156 14.055 14.055 0 002.213-.94.815.815 0 01.743-.764h.016a.847.847 0 01.394.074 14.5 14.5 0 001.872-1.474.815.815 0 01.525-.949.835.835 0 01.263-.045 1.067 1.067 0 01.16.016 14.15 14.15 0 001.417-1.893.82.82 0 01.242-1.066l.013-.008a.819.819 0 01.415-.135 14.5 14.5 0 00.866-2.194.836.836 0 01-.234-.509.893.893 0 01.078-.411.969.969 0 01.115-.181v-.008a.735.735 0 01.365-.238.775.775 0 01.193-.041.429.429 0 01.07 0v.468h9.435v-3.136h-2.467l2.492-2.5V31.56l3.149-2.488v-7.054zm-9.341-9.434h3.74l.784 3.145h-4.524zm-6.645 0h2.177v6.29h9.78l.784 3.145h-17.456zm-27.7 29.881h-3.8l-3.043 3.042v-6.188h2.119v-5.85l4.721 1.178zm-4.721-12.239l-1.375-.345h-.747V17.3h14l4.915-7.868 2.946-4.717h6.987l-2.8 2.1-1.387 2.619-6.655 12.584-.833 1.573-.833 1.572-4.028 7.612zm39.358 15.383a7.986 7.986 0 01-.164 1.573 7.9 7.9 0 01-.5 1.572 8.056 8.056 0 01-14.789 0 7.92 7.92 0 01-.665-3.145v-.063a8.059 8.059 0 0115.826-2.146 8.228 8.228 0 01.3 2.143v.063m15.684-18.06l-3.145 2.492v11.773l-3.794 3.8h-2.5v.376l-.008-.008a.824.824 0 01-.313-.365.32.32 0 01-.024-.057.819.819 0 01.02-.6l.013-.029a.784.784 0 01.275-.313 14.264 14.264 0 00-.365-2.352.806.806 0 01-.423-.313.822.822 0 01-.132-.6v-.016a.762.762 0 01.168-.353 13.95 13.95 0 00-.985-2.2.8.8 0 01-.448-.193.815.815 0 01-.283-.564v-.053a.8.8 0 01.053-.3 14.756 14.756 0 00-1.556-1.9.858.858 0 01-.431-.074.838.838 0 01-.419-.472.8.8 0 01-.041-.255v-.039a13.692 13.692 0 00-1.646-1.232 6.602 6.602 0 00-.4-.246.806.806 0 01-.382.021.8.8 0 01-.517-.333l-.013-.012a1 1 0 01-.1-.226 13.712 13.712 0 00-2.417-.918.9.9 0 01-.32.09.815.815 0 01-.591-.193h-.008a1 1 0 01-.125-.144 14.106 14.106 0 00-2.652-.266 1.009 1.009 0 01-.234.131.834.834 0 01-.627-.037.626.626 0 01-.107-.063 14.152 14.152 0 00-2.726.435.82.82 0 01-.152.139.8.8 0 01-.591.132h-.021c-.02 0-.041-.012-.057-.016a13.824 13.824 0 00-2.615 1.17.7.7 0 01-.078.111.815.815 0 01-.538.283h-.024a14.058 14.058 0 00-2.3 1.856.557.557 0 01-.029.078.823.823 0 01-.435.4 14.582 14.582 0 00-1.782 2.426.343.343 0 010 .063.825.825 0 01-.3.488 14.125 14.125 0 00-1.109 2.8.47.47 0 01.013.07.829.829 0 01-.168.564 14.078 14.078 0 00-.349 2.964c.013.029.029.058.041.087a.441.441 0 01.017.073.775.775 0 01-.041.526l-.008.016c0-.181-.013-.361-.013-.542h-2.492l-3.149-3.145h-3.793v-7.045l3.958.989 5.961-11.262h37.256z"
      data-name="Path 20310"
      transform="translate(-59.415)"
    ></path>
    <path
      fill="#fff"
      d="M210.114 75.168h-.014a1.138 1.138 0 01-.078-.156c.029.053.063.107.095.156"
      data-name="Path 20311"
      transform="translate(-78.357 -27.987)"
    ></path>
    <path
      fill="#fff"
      d="M214.916 64.747a6.068 6.068 0 00-10.358 4.291v.063a5.987 5.987 0 00.226 1.572 6.081 6.081 0 00.694 1.572 6.221 6.221 0 00.854 1.08 6.067 6.067 0 008.58 0 6.223 6.223 0 00.854-1.08 6.08 6.08 0 00.693-1.572 5.989 5.989 0 00.23-1.572v-.063a6.036 6.036 0 00-1.778-4.291m-6.934 5.773a1.216 1.216 0 01-.082-.164l-.024-.05a3.107 3.107 0 01-.28-1.2v-.063a2.778 2.778 0 01.037-.452l.013-.086a2.884 2.884 0 01.1-.415c.008-.02.016-.045.024-.063a4 4 0 01.164-.376c0-.008.008-.021.013-.029a3.526 3.526 0 01.229-.361.613.613 0 00.045-.063c.045-.058.091-.111.136-.164.02-.021.041-.045.063-.066a.469.469 0 01.063-.063c.008-.008.016-.012.024-.021s.033-.028.05-.045a2.641 2.641 0 01.283-.234.887.887 0 01.1-.07 3.76 3.76 0 01.275-.169c.037-.016.074-.037.111-.057a3.108 3.108 0 01.411-.16 3.005 3.005 0 01.328-.074.756.756 0 01.107-.024 2.777 2.777 0 01.452-.033 3.005 3.005 0 011.182.238 3.046 3.046 0 01.337.172c.024.013.049.029.074.045a3.131 3.131 0 01.3.206l.008.008c.041.037.082.07.125.107.021.017.041.037.063.058a.636.636 0 01.057.053l.037.041a2.882 2.882 0 01.288.345 3.021 3.021 0 01.564 1.755v.063a3.03 3.03 0 01-4.959 2.274 2.116 2.116 0 01-.177-.16l-.037-.037c-.029-.028-.058-.063-.087-.094l-.063-.07a3.333 3.333 0 01-.258-.34h-.017a1.208 1.208 0 01-.078-.156"
      data-name="Path 20312"
      transform="translate(-76.32 -23.494)"
    ></path>
  </g>
</svg>
);
};

const ColoredLogo = () => {
return (
<svg xmlns="http://www.w3.org/2000/svg" width="161.923" height="64" viewBox="0 0 161.923 64">
  <defs>
    <clipPath id="logo-clip-path">
      <path
        fill="none"
        d="M1416.175 462.227a8.876 8.876 0 00-8.875 8.876v27.476a8.876 8.876 0 008.875 8.876h28.088a8.878 8.878 0 008.877-8.876V471.1a8.878 8.878 0 00-8.877-8.876z"
        data-name="Path 20219"
        transform="translate(-1407.3 -462.227)"
      ></path>
    </clipPath>
  </defs>
  <g data-name="Group 4358" transform="translate(0 6.308)">
    <g fill="#000001" data-name="Group 4367">
      <path
        d="M1443.412 507.456h-29.542a6.569 6.569 0 01-6.568-6.569V468.8a6.569 6.569 0 016.568-6.569h36.111v38.659a6.569 6.569 0 01-6.569 6.569"
        data-name="Path 20191"
        transform="translate(-1309.754 -458.668)"
      ></path>
      <path
        d="M1062.009 580.288v7.595h-2.309v-7.595h-2.7v-1.973h7.716v1.973z"
        data-name="Path 20192"
        transform="translate(-1056.995 -542.429)"
      ></path>
      <path
        d="M1113.948 587.884v-4h-3.73v4h-2.311v-9.568h2.311v3.622h3.73v-3.622h2.311v9.568z"
        data-name="Path 20193"
        transform="translate(-1093.73 -542.43)"
      ></path>
      <path d="M0 0H2.324V9.568H0z" data-name="Rectangle 2561" transform="translate(29.908 35.886)"></path>
      <path
        d="M1202.555 587.219a6.4 6.4 0 01-2.081-.324 4.412 4.412 0 01-1.615-.953 4.305 4.305 0 01-1.041-1.54 5.487 5.487 0 01-.372-2.088 4.981 4.981 0 01.392-2 4.583 4.583 0 011.088-1.554 4.935 4.935 0 011.649-1.007 6.09 6.09 0 014.115 0 4.931 4.931 0 011.635 1 4.5 4.5 0 011.075 1.54 4.975 4.975 0 01.385 1.98 4.2 4.2 0 01-.122 1.034 4.057 4.057 0 01-.324.872 3.731 3.731 0 01-.459.7 3.609 3.609 0 01-.514.507v.041l2.014-.041v1.838zm2.784-4.879a3.27 3.27 0 00-.2-1.148 2.641 2.641 0 00-.554-.906 2.506 2.506 0 00-.858-.588 2.81 2.81 0 00-1.095-.209 2.721 2.721 0 00-1.074.209 2.585 2.585 0 00-.858.588 2.657 2.657 0 00-.567.906 3.172 3.172 0 00-.2 1.148 3.4 3.4 0 00.2 1.183 2.69 2.69 0 00.554.919 2.459 2.459 0 00.852.595 2.914 2.914 0 002.169 0 2.519 2.519 0 00.865-.595 2.727 2.727 0 00.568-.919 3.3 3.3 0 00.2-1.183"
        data-name="Path 20194"
        transform="translate(-1158.337 -541.765)"
      ></path>
      <path
        d="M1260.25 587.884v-9.568h6.433v1.946h-4.2v1.811h3.973v1.852h-3.973v1.986h4.446v1.973z"
        data-name="Path 20195"
        transform="translate(-1203.651 -542.43)"
      ></path>
      <path
        d="M1309.12 587.884v-9.568h6.433v1.946h-4.2v1.811h3.973v1.852h-3.973v1.986h4.446v1.973z"
        data-name="Path 20196"
        transform="translate(-1238.913 -542.43)"
      ></path>
      <path
        d="M1357.99 587.884v-9.568h2.324v7.554h3.7v2.014z"
        data-name="Path 20197"
        transform="translate(-1274.174 -542.43)"
      ></path>
      <path d="M0 0H6.062V4.461H0z" data-name="Rectangle 2562" transform="translate(34.238 28.274)"></path>
      <path d="M0 0H6.062V4.461H0z" data-name="Rectangle 2563" transform="translate(26.906 28.274)"></path>
      <path d="M0 0H6.062V4.461H0z" data-name="Rectangle 2564" transform="translate(50.436 5.813)"></path>
      <path d="M0 0H6.062V4.461H0z" data-name="Rectangle 2565" transform="translate(57.768 5.813)"></path>
      <path d="M0 0H6.062V4.461H0z" data-name="Rectangle 2566" transform="translate(83.003)"></path>
      <path d="M0 0H6.062V4.461H0z" data-name="Rectangle 2567" transform="translate(86.575 5.813)"></path>
      <path
        d="M1144.063 479.963v9.173q0 .831-.564.946h-19.691v-5.465a8.069 8.069 0 00-.188-1.864 3.458 3.458 0 00-.6-1.313 2.883 2.883 0 00-1.042-.84 5.351 5.351 0 00-1.543-.444 12.287 12.287 0 00-1.222-.145q-.674-.048-1.5-.048h-6.513q-.94 0-1.668.048a10.392 10.392 0 00-1.23.145 4.773 4.773 0 00-1.457.454 2.833 2.833 0 00-1 .859 3.6 3.6 0 00-.572 1.323 8.193 8.193 0 00-.18 1.825v5.465h-10.322a.906.906 0 01-.5-.946v-9.173h-6.071v9.137a.858.858 0 01-.611.946 1.056 1.056 0 01-.313.02q-.282 0-.705.01l-.446.009h-9.235v-14.564h-6.031v18.695q0 .831-.564.947h-6.062q-.58-.117-.58-.947v-14.253h-6.062v20.22h13.209a17.071 17.071 0 003.117-.232 4.79 4.79 0 001.386-.5 2.679 2.679 0 00.924-.869 3.758 3.758 0 00.509-1.314 9.122 9.122 0 00.157-1.8v-.368h12.557v-.009c.169 0 .331-.006.476-.01a5.226 5.226 0 001-.1 2.745 2.745 0 002.318-1.372q.706 1.488 3.368 1.488h29.309v.003l4.574-.006v.011H1144c.438 0 .837-.012 1.22-.031h.081a13.669 13.669 0 001.817-.2 4.8 4.8 0 001.386-.5 2.68 2.68 0 00.924-.869 3.747 3.747 0 00.509-1.313 9.159 9.159 0 00.156-1.8v-10.429zm-26.316 9.212a1.544 1.544 0 01-.094.657q-.094.193-.673.251h-5.341a.505.505 0 01-.4-.241 1.76 1.76 0 01-.086-.666v-3.246a.859.859 0 01.877-.985h5.169q.548.174.548.985z"
        data-name="Path 20198"
        transform="translate(-1057.428 -468.26)"
      ></path>
      <path d="M0 0H6.062V4.461H0z" data-name="Rectangle 2568" transform="translate(79.243 5.813)"></path>
    </g>
  </g>
  <g data-name="Group 4360" transform="translate(97.547 9.867)">
    <g fill="#000001" clipPath="url(#logo-clip-path)" data-name="Group 4359">
      <path
        d="M1511.356 466.136h-11.842V463.8h9.473v-1.169h2.369z"
        data-name="Path 20199"
        transform="translate(-1473.836 -462.518)"
      ></path>
      <path
        d="M1419.08 539.591l-3.553 3.505h-26.053l-2.368-2.337H1380l-2.369 2.337h-14.211V525.57h58.027v3.505l-2.369 1.849z"
        data-name="Path 20200"
        transform="translate(-1375.64 -507.931)"
      ></path>
      <path
        d="M1412.951 541.237h-27.034l-2.369-2.337h-6.125l-2.368 2.337h-15.885v-19.863h60.4v5.239l-2.369 1.85v8.585zM1386.9 538.9h25.072l2.859-2.821v-8.747l2.369-1.849v-1.772h-55.659V538.9h12.536l2.368-2.337h8.086zm29.115-2.337z"
        data-name="Path 20201"
        transform="translate(-1372.572 -504.904)"
      ></path>
      <path d="M0 0H10.658V2.337H0z" data-name="Rectangle 2570" transform="translate(33.966 21.144)"></path>
      <path d="M0 0H7.105V2.337H0z" data-name="Rectangle 2571" transform="translate(12.652 21.144)"></path>
      <path
        d="M1333.65 560.093a9.475 9.475 0 109.474-9.348 9.411 9.411 0 00-9.474 9.348"
        data-name="Path 20202"
        transform="translate(-1354.159 -526.096)"
      ></path>
      <path
        d="M1340.054 567.582a10.517 10.517 0 1110.658-10.516 10.6 10.6 0 01-10.658 10.516m0-18.695a8.18 8.18 0 108.29 8.179 8.245 8.245 0 00-8.29-8.179"
        data-name="Path 20203"
        transform="translate(-1351.089 -523.07)"
      ></path>
      <path
        d="M1354.92 575.231a3.553 3.553 0 103.553-3.505 3.529 3.529 0 00-3.553 3.505"
        data-name="Path 20204"
        transform="translate(-1369.506 -541.235)"
      ></path>
      <path
        d="M1355.4 576.876a4.674 4.674 0 114.737-4.673 4.71 4.71 0 01-4.737 4.673m0-7.01a2.337 2.337 0 102.369 2.337 2.356 2.356 0 00-2.369-2.337"
        data-name="Path 20205"
        transform="translate(-1366.431 -538.206)"
      ></path>
      <path
        d="M1469.74 560.093a9.475 9.475 0 109.474-9.348 9.411 9.411 0 00-9.474 9.348"
        data-name="Path 20206"
        transform="translate(-1452.353 -526.096)"
      ></path>
      <path
        d="M1476.144 567.582a10.517 10.517 0 1110.658-10.516 10.6 10.6 0 01-10.658 10.516m0-18.695a8.18 8.18 0 108.289 8.179 8.245 8.245 0 00-8.289-8.179"
        data-name="Path 20207"
        transform="translate(-1449.284 -523.07)"
      ></path>
      <path
        d="M1491 575.231a3.553 3.553 0 103.553-3.505 3.529 3.529 0 00-3.553 3.505"
        data-name="Path 20208"
        transform="translate(-1467.693 -541.235)"
      ></path>
      <path
        d="M1491.486 576.876a4.674 4.674 0 114.737-4.673 4.71 4.71 0 01-4.737 4.673m0-7.01a2.337 2.337 0 102.369 2.337 2.356 2.356 0 00-2.369-2.337"
        data-name="Path 20209"
        transform="translate(-1464.625 -538.206)"
      ></path>
      <path d="M0 0H7.105V2.337H0z" data-name="Rectangle 2572" transform="translate(37.519 33.996)"></path>
      <path d="M0 0H3.553V2.337H0z" data-name="Rectangle 2573" transform="translate(41.071 25.818)"></path>
      <path
        d="M1523.628 496.677l-1.184-4.677h-5.922v4.674z"
        data-name="Path 20210"
        transform="translate(-1486.108 -483.712)"
      ></path>
      <path
        d="M1522.073 494.819h-9.807v-7.011h8.03zm-7.439-2.337h4.4l-.592-2.337h-3.812z"
        data-name="Path 20211"
        transform="translate(-1483.037 -480.685)"
      ></path>
      <path
        d="M1495.041 496.677V492h-3.553l-4.737 9.347h16.58l-1.185-4.674z"
        data-name="Path 20212"
        transform="translate(-1464.627 -483.712)"
      ></path>
      <path
        d="M1499.88 499.492h-20.013l5.922-11.684h5.469v4.673h6.846zm-16.181-2.337h13.146l-.592-2.337h-7.364v-4.673h-1.637z"
        data-name="Path 20213"
        transform="translate(-1459.66 -480.685)"
      ></path>
      <path d="M0 0H2.368V10.516H0z" data-name="Rectangle 2574" transform="translate(6.729 24.649)"></path>
      <path d="M0 0H2.369V7.01H0z" data-name="Rectangle 2575" transform="translate(.808 22.313)"></path>
      <path
        d="M1312.39 480.372v4.674l37.9 9.347 10.657-19.863 4.737-3.505h-9.474l-5.921 9.347z"
        data-name="Path 20214"
        transform="translate(-1338.819 -468.575)"
      ></path>
      <path
        d="M1347.828 492.72l-39.692-9.79v-6.755h38.423l5.921-9.347h13.683l-7.366 5.452zM1310.5 481.1l36.1 8.9 10.348-19.285 2.107-1.559h-5.264l-5.922 9.348H1310.5z"
        data-name="Path 20215"
        transform="translate(-1335.749 -465.547)"
      ></path>
      <path
        d="M1359.082 508.5l-1.674-1.652 4.043-3.99 1.674 1.652z"
        data-name="Path 20216"
        transform="translate(-1371.3 -491.541)"
      ></path>
      <path
        d="M1393.1 508.5l-1.674-1.652 4.043-3.99 1.674 1.652z"
        data-name="Path 20217"
        transform="translate(-1395.847 -491.541)"
      ></path>
      <path
        d="M1427.121 508.5l-1.674-1.652 4.042-3.99 1.675 1.652z"
        data-name="Path 20218"
        transform="translate(-1420.394 -491.541)"
      ></path>
    </g>
  </g>
  <path
    fill="#000001"
    d="M1548.619 431.725h-16.445v-3.288h13.155v-1.645h3.29z"
    data-name="Path 20220"
    transform="translate(-1399.855 -426.792)"
  ></path>
  <path
    fill="#fbb516"
    d="M1412.01 515.378v24.668h.573l3.289-3.289h9.867l3.288 3.289h36.179l4.933-4.933v-12.2l3.29-2.6v-4.934z"
    data-name="Path 20221"
    transform="translate(-1313.152 -490.71)"
  ></path>
  <path
    fill="#000001"
    d="M1412.01 509.472v3.289h59.775v2.494l-3.288 2.6v12.31l-3.97 3.97h-34.818l-3.289-3.289h-11.228l-3.182 3.182v3.4h1.255l3.289-3.289h8.5l3.289 3.289h37.541l5.9-5.9v-12.079l3.29-2.6v-7.373z"
    data-name="Path 20222"
    transform="translate(-1313.152 -486.449)"
  ></path>
  <path
    fill="#000001"
    d="M1620.76 586.247z"
    data-name="Path 20223"
    transform="translate(-1463.773 -541.845)"
  ></path>
  <g data-name="Group 4362" transform="translate(98.856 1.645)">
    <g data-name="Group 4366">
      <path
        fill="#fff"
        d="M1490.84 563.966A13.156 13.156 0 101504 550.81a13.156 13.156 0 00-13.156 13.156"
        data-name="Path 20224"
        transform="translate(-1468.887 -517.921)"
      ></path>
      <path
        fill="#000001"
        d="M1499.73 574.509a14.8 14.8 0 1114.8-14.8 14.817 14.817 0 01-14.8 14.8m0-26.312a11.511 11.511 0 1011.511 11.511 11.525 11.525 0 00-11.511-11.508"
        data-name="Path 20225"
        transform="translate(-1464.623 -513.662)"
      ></path>
      <path
        fill="#f7ca2e"
        d="M1520.37 585.274a4.933 4.933 0 104.933-4.934 4.933 4.933 0 00-4.933 4.934"
        data-name="Path 20226"
        transform="translate(-1490.194 -539.228)"
      ></path>
      <path
        fill="#000001"
        d="M1521.034 587.591a6.578 6.578 0 116.578-6.578 6.585 6.585 0 01-6.578 6.578m0-9.867a3.289 3.289 0 103.289 3.289 3.293 3.293 0 00-3.289-3.289"
        data-name="Path 20227"
        transform="translate(-1485.927 -534.967)"
      ></path>
      <path
        fill="#000001"
        d="M0 0H9.867V3.289H0z"
        data-name="Rectangle 2576"
        transform="translate(49.91 46.046)"
      ></path>
      <path
        fill="#000001"
        d="M1563.518 472.1H1549.9v-9.866h11.152zm-10.33-3.289h6.115l-.822-3.289h-5.293z"
        data-name="Path 20228"
        transform="translate(-1511.5 -454.006)"
      ></path>
      <path
        fill="#fbb516"
        d="M1525.972 474.71v-6.578h-4.933l-6.578 13.156h23.023l-1.645-6.578z"
        data-name="Path 20229"
        transform="translate(-1485.931 -458.265)"
      ></path>
      <path
        fill="#000001"
        d="M1532.7 478.672h-27.791l8.223-16.445h7.594v6.573h9.507zm-22.469-3.289h18.255l-.822-3.288h-10.227v-6.578h-2.273z"
        data-name="Path 20230"
        transform="translate(-1479.038 -454.005)"
      ></path>
      <path
        fill="#000001"
        d="M0 0H3.289V14.801H0z"
        data-name="Rectangle 2577"
        transform="translate(7.152 32.89)"
      ></path>
      <path
        fill="#000001"
        d="M0 0H2.218V9.867H0z"
        data-name="Rectangle 2578"
        transform="translate(.002 29.601)"
      ></path>
      <path
        fill="#fbb516"
        d="M1433.96 438.606l-8.222 13.156h-13.73v16.3l13.73 3.432 14.8-27.956 6.578-4.933z"
        data-name="Path 20231"
        transform="translate(-1412.007 -436.961)"
      ></path>
      <path
        fill="#000001"
        d="M1433.043 432.7l-8.222 13.156H1412v3.288h14.642l8.222-13.156h7.31l-2.926 2.195-14.37 27.143-12.878-3.22v3.394l14.58 3.645 15.231-28.769 10.23-7.673z"
        data-name="Path 20232"
        transform="translate(-1412.004 -432.699)"
      ></path>
      <path
        fill="#fff"
        fillRule="evenodd"
        d="M1515.848 562.551a13.608 13.608 0 11-13.608-13.608 13.608 13.608 0 0113.608 13.608"
        data-name="Path 20233"
        transform="translate(-1467.293 -516.573)"
      ></path>
      <path
        fill="#000001"
        d="M1510.473 560.625a.748.748 0 01-.068-.053l-.949-.819a.863.863 0 01-.1-1.206l.006-.008a.853.853 0 01.586-.293.864.864 0 01.472.1 1.131 1.131 0 01.85-.543c.006-.042.016-.084.022-.126q.079-.565.12-1.141v-.042l-.041-.011a.8.8 0 01-.154-.057l-1.129-.546a.866.866 0 01-.413-1.121l.013-.03a.862.862 0 011.147-.4l.517.25.078.037v-.086q-.03-.575-.1-1.139t-.177-1.13l-.008-.042h-.126l-.084-.012-1.231-.236a.864.864 0 01-.686-.99v-.016a.862.862 0 011-.682l.569.109.085.016-.027-.082q-.177-.548-.391-1.077t-.465-1.045l-.019-.038-.041.011a.772.772 0 01-.082.019c-.027 0-.055.008-.083.01l-1.251.091a.863.863 0 01-.921-.795.862.862 0 01.794-.919l.575-.042.086-.006-.047-.072q-.313-.482-.657-.938t-.719-.889l-.027-.032-.036.022c-.024.014-.048.026-.073.038s-.05.021-.077.031l-1.184.412a.864.864 0 01-1.1-.53.862.862 0 01.53-1.093l.543-.189.081-.028-.064-.058q-.424-.383-.876-.737t-.923-.673l-.035-.024-.03.03a.821.821 0 01-.062.057.844.844 0 01-.067.051l-1.037.7a.866.866 0 01-1.187-.215l-.01-.013a.863.863 0 01.229-1.193l.479-.326.071-.048-.077-.039q-.509-.26-1.035-.485t-1.07-.411l-.04-.014-.021.037a1.08 1.08 0 01-.097.139l-.82.949a.864.864 0 01-1.209.094h-.005a.863.863 0 01-.088-1.212l.378-.437.056-.066-.084-.018q-.558-.118-1.126-.2t-1.139-.12h-.042l-.01.041-.025.08a.704.704 0 01-.032.075l-.545 1.128a.865.865 0 01-1.15.4.861.861 0 01-.4-1.148l.251-.518.038-.077h-.086q-.575.029-1.138.1t-1.131.177l-.042.008v.127c0 .028-.006.054-.012.083l-.235 1.231a.864.864 0 01-.984.688h-.024a.853.853 0 01-.548-.361.862.862 0 01-.135-.644l.109-.569.016-.084-.082.026q-.547.177-1.076.391t-1.045.464l-.038.018.011.041a.802.802 0 01.018.082.8.8 0 01.01.085l.092 1.25a.864.864 0 01-.771.919h-.027a.861.861 0 01-.918-.793l-.042-.575-.006-.086-.072.047q-.482.314-.938.656t-.888.718l-.031.027.021.036c.014.024.026.049.038.073s.022.051.031.078l.412 1.185a.865.865 0 01-.509 1.087l-.022.008a.86.86 0 01-1.09-.528l-.189-.543-.028-.081-.058.064q-.382.423-.736.875t-.673.922l-.024.035.03.03c.02.02.039.04.057.062a.748.748 0 01.051.067l.7 1.037a.864.864 0 01-.21 1.183l-.018.011a.862.862 0 01-1.191-.227l-.326-.48-.048-.071-.039.077q-.26.508-.484 1.034t-.412 1.069l-.014.04.037.021.072.045c.025.016.045.035.067.052l.95.82a.865.865 0 01.107 1.191l-.02.022a.862.862 0 01-1.209.089l-.438-.378-.065-.056-.018.084q-.119.556-.2 1.125t-.119 1.14v.042l.041.011a.761.761 0 01.079.025.678.678 0 01.077.033l1.128.545a.865.865 0 01.413 1.121l-.014.03a.862.862 0 01-1.145.4l-.519-.251-.077-.037v.086q.029.574.1 1.138t.178 1.131l.007.041h.125c.027 0 .055.007.085.013l1.231.235a.864.864 0 01.69.965l-.006.043a.851.851 0 01-.36.546.86.86 0 01-.644.135l-.567-.109-.085-.016.026.082q.177.547.391 1.076t.464 1.045l.018.038.041-.011a.809.809 0 01.167-.029l1.25-.091a.863.863 0 01.919.775v.023a.862.862 0 01-.793.918l-.576.042-.086.006.047.072q.312.481.656.937c.229.3.469.6.719.889l.028.032.036-.021a.865.865 0 01.152-.069l1.184-.412a.864.864 0 011.087.507l.008.023a.861.861 0 01-.527 1.091l-.544.189-.081.028.064.058a16.78 16.78 0 001.798 1.41l.035.024.03-.03a.765.765 0 01.062-.057.677.677 0 01.067-.05l1.038-.7a.865.865 0 011.186.216l.008.013a.862.862 0 01-.228 1.192l-.479.326-.071.048.077.039q.509.261 1.036.484t1.069.411l.04.014.021-.037a.777.777 0 01.045-.072.755.755 0 01.052-.067l.82-.949a.864.864 0 011.2-.1l.017.015a.851.851 0 01.293.586.86.86 0 01-.2.624l-.378.438-.056.065.084.018q.556.118 1.124.2t1.141.12h.043l.01-.042a.8.8 0 01.025-.079.784.784 0 01.033-.076l.546-1.129a.864.864 0 011.12-.413l.03.014a.863.863 0 01.4 1.147l-.25.517-.037.078h.086q.576-.029 1.14-.1t1.129-.177l.042-.008v-.042-.084c0-.026.007-.055.012-.084l.235-1.231a.864.864 0 01.978-.688l.03.006a.86.86 0 01.681 1l-.109.569-.016.085.082-.026q.547-.177 1.076-.39c.355-.143.7-.3 1.045-.464l.038-.018-.011-.041a.716.716 0 01-.019-.082c0-.027-.008-.055-.01-.084l-.091-1.251a.863.863 0 01.785-.92h.014a.862.862 0 01.918.793l.042.576.006.086.072-.047q.482-.313.938-.656t.889-.718l.032-.028-.021-.036a.849.849 0 01-.038-.073.777.777 0 01-.031-.078l-.412-1.185a.864.864 0 01.525-1.093h.006a.852.852 0 01.654.039.862.862 0 01.438.489l.189.543.028.082.058-.064q.382-.424.736-.875t.673-.923l.024-.035-.03-.03a.819.819 0 01-.056-.061.74.74 0 01-.05-.067l-.705-1.037a.865.865 0 01.215-1.186l.013-.009a.862.862 0 011.192.229l.326.479.048.071.039-.076q.26-.509.484-1.036t.411-1.069l.014-.04-.037-.021a.826.826 0 01-.071-.045m-9.444.715a8.43 8.43 0 112.47-5.961 8.4 8.4 0 01-2.47 5.961"
        data-name="Path 20234"
        transform="translate(-1460.121 -509.401)"
      ></path>
      <path
        fill="#000001"
        d="M1521.066 575.023a6.345 6.345 0 104.488 1.859 6.326 6.326 0 00-4.488-1.859m2.242 8.588a3.17 3.17 0 11.929-2.242 3.16 3.16 0 01-.929 2.242"
        data-name="Path 20235"
        transform="translate(-1486.118 -535.391)"
      ></path>
      <path
        fill="#fbb516"
        fillRule="evenodd"
        d="M1532.46 589.6a3.17 3.17 0 11-3.17-3.17 3.17 3.17 0 013.17 3.17"
        data-name="Path 20236"
        transform="translate(-1494.342 -543.62)"
      ></path>
    </g>
  </g>
  <g data-name="Group 4364" transform="translate(.002 53.212)">
    <g fill="#fbb515" data-name="Group 4368">
      <path
        d="M1057.637 626.887a2.619 2.619 0 01-.634-.075l.076-.793a2.166 2.166 0 00.612.091.761.761 0 00.611-.238 1.272 1.272 0 00.2-.82v-3.633h1v2.765h.778v.786h-.778v.03a2.89 2.89 0 01-.079.71 1.8 1.8 0 01-.276.589 1.263 1.263 0 01-.578.434 2.487 2.487 0 01-.933.155m2.531-2.7h.914v.786h-.914zm.8 0h.914v.786h-.914zm.8 0h.914v.786h-.914zm.8 0h.914v.786h-.914zm.8 0h.914v.786h-.914zm.8 0h.914v.786h-.914zm.8 0h.914v.786h-.914zm.8 0h.914v.786h-.914zm.8 0h.914v.786h-.914zm.8 0h.914v.786h-.914zm.8 0h.914v.786h-.914zm.8 0h.914v.786h-.914zm.8 0h.914v.786h-.914zm.8 0h.914v.786h-.914zm.8 0h.914v.786h-.914zm.8 0h.914v.786h-.914zm.8 0h.914v.786h-.914zm.8 0h.914v.786h-.914zm.8 0h.914v.786h-.914zm.8 0h.914v.786h-.914zm.8 0h.914v.786h-.914zm.8 0h.914v.786h-.914zm.8 0h.914v.786h-.914zm.8 0h.914v.786h-.914zm.8 0h.914v.786h-.914zm.8.786a.519.519 0 01-.295-.113.335.335 0 01-.159-.28.339.339 0 01.159-.276.508.508 0 01.295-.117h.891v-2.765h1v2.765h.778v.786zm.257-4.524a.477.477 0 01.143-.344.468.468 0 01.348-.147.478.478 0 01.344.144.49.49 0 11-.834.348m.626-.99a.477.477 0 01.144-.344.467.467 0 01.348-.147.489.489 0 01.347.835.467.467 0 01-.347.147.49.49 0 01-.491-.491m.619.99a.491.491 0 11.982 0 .477.477 0 01-.144.344.466.466 0 01-.347.147.477.477 0 01-.344-.144.467.467 0 01-.148-.347m4.155 4.524h-3.1a.518.518 0 01-.294-.113.334.334 0 01-.159-.28.338.338 0 01.159-.276.508.508 0 01.294-.117h2.123a2.1 2.1 0 00-1.843-2.13v-.733l2.991-1.873v.99l-1.843 1.11a2.753 2.753 0 011.243 1.054 3.473 3.473 0 01.434 1.862zm.6-5.476v-.544a2.174 2.174 0 01.453.045.344.344 0 01-.189-.332.69.69 0 01.279-.548 1.283 1.283 0 01.831-.23 3.667 3.667 0 01.446.045l-.1.529a2.1 2.1 0 00-.408-.045q-.37 0-.37.257 0 .28.544.28h.461v.544zm.529.378h1v5.1h-1zm3.21 7q-.249 0-.536-.023a4.28 4.28 0 01-.446-.053l-.166-.023.06-.816a5.516 5.516 0 001.179.129q1.306 0 1.307-1v-.113h-.6q-2.017 0-2.017-1.752a1.817 1.817 0 011.994-1.9 4.963 4.963 0 01.8.064 3.816 3.816 0 01.593.132l.2.068v3.4a1.749 1.749 0 01-.582 1.363 2.594 2.594 0 01-1.782.525m1.4-2.689v-1.941a1.672 1.672 0 00-.718-.136.818.818 0 00-.657.283 1.094 1.094 0 00-.242.736q0 1.058 1.133 1.058zm8.558.786H1098a3.172 3.172 0 01-2.126-.574 2.107 2.107 0 01-.646-1.662 3.414 3.414 0 01.2-1.186l1.073-.174a2.847 2.847 0 00-.265 1.246 1.516 1.516 0 00.419 1.193 2.226 2.226 0 001.462.37h1.02v-2.765h1zm-3.339-4.555a.476.476 0 01.143-.344.466.466 0 01.348-.147.48.48 0 01.348.14.47.47 0 01.143.351.478.478 0 01-.14.348.5.5 0 01-.7 0 .479.479 0 01-.14-.348m1.209 0a.477.477 0 01.143-.344.467.467 0 01.347-.147.477.477 0 01.344.143.467.467 0 01.148.348.477.477 0 01-.143.344.468.468 0 01-.348.147.489.489 0 01-.491-.491m3.346-.771h1v5.325h-1zm1.956 5.325v-.786h2.236a2.242 2.242 0 00-.468-1.367 2.423 2.423 0 00-1.314-.748l.241-.831a3.507 3.507 0 011.9 1.1 3.279 3.279 0 01.627 2.134v.5z"
        data-name="Path 20237"
        transform="translate(-1057.003 -617.883)"
      ></path>
      <path d="M0 0H0.997V5.325H0z" data-name="Rectangle 2580" transform="translate(50.563 1.76)"></path>
      <path
        d="M1242.961 632.152a2.619 2.619 0 01-.635-.075l.076-.793a2.168 2.168 0 00.612.091.761.761 0 00.612-.238 1.271 1.271 0 00.2-.82v-3.633h1v2.765h.778v.786h-.778v.03a2.874 2.874 0 01-.079.71 1.8 1.8 0 01-.276.589 1.264 1.264 0 01-.578.434 2.489 2.489 0 01-.933.155m.993-6.084a.511.511 0 11.367.155.5.5 0 01-.367-.155"
        data-name="Path 20238"
        transform="translate(-1190.721 -623.148)"
      ></path>
      <path
        d="M1253.394 633.088h.914v.786h-.914zm.8 0h.914v.786h-.914zm.8 0h.914v.786H1255zm.8 0h.914v.786h-.914zm.8 0h.914v.786h-.914zm.8 0h.914v.786h-.914zm.8 0h.914v.786h-.914zm.8 0h.914v.786H1259zm.8 0h.914v.786h-.914zm.8 0h.914v.786h-.914zm.8 0h.914v.786h-.914zm.8 0h.914v.786h-.914zm.8 0h.914v.786H1263zm.8 0h.914v.786h-.914zm.8 0h.914v.786h-.914zm.8 0h.914v.786h-.914zm.8 0h.914v.786h-.914zm.8 0h.914v.786h-.914zm.8 0h.914v.786h-.914zm.8 0h.914v.786h-.914zm.8 0h.914v.786h-.914zm.8 0h.914v.786h-.914zm.8 0h.914v.786h-.914zm.8 0h.914v.786h-.914zm.8 0h.914v.786h-.914zm.8 0h.914v.786h-.914zm.8 0h.914v.786h-.914zm.8 0h.914v.786h-.914zm.8 0h.914v.786h-.914zm.8 0h.914v.786h-.914zm.8 0h.914v.786h-.914zm.8 0h.914v.786h-.914zm.8 0h.914v.786h-.914zm.8 0h.914v.786h-.914zm.8 0h.914v.786h-.914zm.8 0h.914v.786h-.914zm.8 0h.914v.786h-.914zm.8 0h.914v.786h-.914zm5.053.786h-4.253a.519.519 0 01-.295-.113.335.335 0 01-.158-.279.339.339 0 01.158-.276.509.509 0 01.295-.117h.582a1.618 1.618 0 01.227.015.985.985 0 01.151.03l.045.008a1.252 1.252 0 01-.423-1.08 1.8 1.8 0 01.517-1.3 1.924 1.924 0 011.447-.533 1.668 1.668 0 011.284.457 1.815 1.815 0 01.423 1.28zm-.974-.786v-1q0-1.072-.808-1.073a.818.818 0 00-.657.284 1.093 1.093 0 00-.242.736 1.047 1.047 0 00.276.8 1.212 1.212 0 00.857.261z"
        data-name="Path 20239"
        transform="translate(-1198.707 -626.788)"
      ></path>
    </g>
  </g>
</svg>