<svg xmlns="http://www.w3.org/2000/svg" width="25.609" height="32.124" viewBox="0 0 25.609 32.124">
  <g data-name="Group 173852" transform="translate(0 .001)">
    <g data-name="Group 173853">
      <path
        fill="red"
        d="M23.71 8.345a11.38 11.38 0 00-9.91-7.309 14.341 14.341 0 00-1.994-.002A11.323 11.323 0 001.9 8.328a12.088 12.088 0 002.283 12.761l8.745 9.543 8.54-9.58A12.08 12.08 0 0023.71 8.345M12.7 14.723a4.274 4.274 0 114.274-4.274 4.279 4.279 0 01-4.274 4.274"
        data-name="Path 41936"
      ></path>
      <path
        fill="red"
        d="M24.638 7.972A12.36 12.36 0 0013.875.039a15.38 15.38 0 00-2.136 0A12.307 12.307 0 00.97 7.956a13.078 13.078 0 002.476 13.809l9.493 10.358 9.272-10.4a13.071 13.071 0 002.427-13.751M4.183 21.089A12.084 12.084 0 011.9 8.328a11.324 11.324 0 019.907-7.3q.48-.028.971-.028.516 0 1.025.037a11.383 11.383 0 019.907 7.307 12.079 12.079 0 01-2.243 12.707l-8.539 9.58z"
        data-name="Path 41937"
      ></path>
      <path
        fill="red"
        d="M12.7 6.175a4.274 4.274 0 104.274 4.274A4.279 4.279 0 0012.7 6.175m-3.275 4.274a3.274 3.274 0 113.275 3.274 3.278 3.278 0 01-3.274-3.274"
        data-name="Path 41938"
      ></path>
    </g>
  </g>
</svg>
