<svg id="visa-master-card" xmlns="http://www.w3.org/2000/svg" width="24" height="24" viewBox="0 0 24 24">
  <rect id="Rectangle_2226" data-name="Rectangle 2226" width="24" height="24" fill="none"/>
  <path id="Icon_metro-mastercard" data-name="Icon metro-mastercard" d="M7.7,14.042H7.585q-.419,0-.419.286,0,.2.178.2a.3.3,0,0,0,.25-.134A.619.619,0,0,0,7.7,14.042Zm3.524-.321h.553v-.027a.137.137,0,0,0,0-.058q0-.022-.009-.062a.251.251,0,0,0-.018-.071.185.185,0,0,0-.04-.058.219.219,0,0,0-.067-.045.254.254,0,0,0-.1-.018q-.25,0-.321.339Zm4.818.321h-.107q-.428,0-.428.286,0,.2.178.2a.3.3,0,0,0,.25-.134A.619.619,0,0,0,16.044,14.042Zm2.846-.232q0-.366-.268-.366a.317.317,0,0,0-.277.178.873.873,0,0,0-.107.455q0,.375.25.375a.332.332,0,0,0,.29-.178A.864.864,0,0,0,18.89,13.81ZM6,12.552h.776L6.38,14.89h-.5L6.166,13.1,5.533,14.89H5.185l-.036-1.785-.3,1.785H4.373l.393-2.338h.723l.018,1.454Zm2.257.955q0,.054-.036.375-.143.9-.152,1.008H7.647l.009-.2a.613.613,0,0,1-.518.232.431.431,0,0,1-.335-.143.537.537,0,0,1-.129-.375.661.661,0,0,1,.232-.54,1,1,0,0,1,.651-.192,1.924,1.924,0,0,1,.205.009.251.251,0,0,1,0-.049q0-.022.009-.04a.123.123,0,0,0,0-.027q0-.178-.321-.178a1.658,1.658,0,0,0-.526.089q0-.036.062-.428a2.186,2.186,0,0,1,.6-.1q.66,0,.66.553Zm1.392-.518-.071.437a2.718,2.718,0,0,0-.366-.027q-.241,0-.241.152a.136.136,0,0,0,.04.107.807.807,0,0,0,.192.1.56.56,0,0,1,.357.535q0,.642-.776.634a2.162,2.162,0,0,1-.518-.054q0-.018.062-.437a1.741,1.741,0,0,0,.455.071q.286,0,.286-.17a.139.139,0,0,0-.04-.1.8.8,0,0,0-.192-.112A.567.567,0,0,1,8.45,13.6q0-.642.75-.642a2.329,2.329,0,0,1,.446.036Zm.785,0h.25l-.062.464H10.36q-.018.152-.058.361t-.062.344a1.583,1.583,0,0,0-.022.161q0,.143.17.143a.587.587,0,0,0,.143-.018l-.071.419a1.129,1.129,0,0,1-.357.062q-.384,0-.4-.419a3.857,3.857,0,0,1,.071-.5q.027-.178.223-1.3h.491Zm1.811.651a2,2,0,0,1-.062.464h-.99a.306.306,0,0,0,.089.294.512.512,0,0,0,.339.1,1.144,1.144,0,0,0,.518-.125l-.08.482a1.975,1.975,0,0,1-.509.071.749.749,0,0,1-.848-.848,1.28,1.28,0,0,1,.245-.808.754.754,0,0,1,.62-.317.66.66,0,0,1,.5.187.685.685,0,0,1,.183.5Zm1.24-.66a2.1,2.1,0,0,0-.2.553q-.2-.018-.277.214a9.032,9.032,0,0,0-.223,1.142h-.5l.027-.125q.2-1.16.259-1.776h.455L13,13.284a1.065,1.065,0,0,1,.228-.263.3.3,0,0,1,.254-.04Zm1.669-.366-.08.509A1.019,1.019,0,0,0,14.625,13a.541.541,0,0,0-.455.245,1.043,1.043,0,0,0-.178.629.658.658,0,0,0,.12.419.413.413,0,0,0,.344.152,1.009,1.009,0,0,0,.428-.116l-.089.526a1.645,1.645,0,0,1-.446.071.8.8,0,0,1-.638-.272,1.084,1.084,0,0,1-.236-.736,1.588,1.588,0,0,1,.317-1.022,1,1,0,0,1,.816-.4,1.6,1.6,0,0,1,.544.116Zm1.445.892a2.317,2.317,0,0,1-.036.375q-.116.7-.152,1.008H16l.009-.2a.623.623,0,0,1-.526.232.417.417,0,0,1-.33-.143.548.548,0,0,1-.125-.375.667.667,0,0,1,.228-.54.976.976,0,0,1,.647-.192,1.776,1.776,0,0,1,.205.009.424.424,0,0,0,.018-.116q0-.178-.321-.178a1.658,1.658,0,0,0-.526.089q0-.036.071-.428a2.186,2.186,0,0,1,.6-.1q.651,0,.651.553Zm1.258-.526a1.719,1.719,0,0,0-.187.553.257.257,0,0,0-.281.205,10.059,10.059,0,0,0-.228,1.151h-.5l.027-.125q.17-.928.259-1.776h.464a1.81,1.81,0,0,1-.036.294,1.2,1.2,0,0,1,.236-.263.279.279,0,0,1,.245-.04Zm1.258-.428h.5l-.384,2.338h-.473l.027-.17a.64.64,0,0,1-.464.205.529.529,0,0,1-.442-.214.911.911,0,0,1-.165-.571,1.388,1.388,0,0,1,.245-.821.7.7,0,0,1,.576-.348.579.579,0,0,1,.473.259Zm.99,1.16A4.854,4.854,0,0,0,12.323,9.84a5.116,5.116,0,0,1,1.526,2.534H13.4a4.8,4.8,0,0,0-1.41-2.257,4.8,4.8,0,0,0-1.41,2.257h-.446A5.116,5.116,0,0,1,11.663,9.84a4.857,4.857,0,0,0-7.134,1.437,4.852,4.852,0,0,0,4.207,7.29,4.767,4.767,0,0,0,2.927-.982,5.132,5.132,0,0,1-1.472-2.356h.446a4.764,4.764,0,0,0,1.356,2.079,4.764,4.764,0,0,0,1.356-2.079H13.8a5.132,5.132,0,0,1-1.472,2.356A4.846,4.846,0,0,0,20.1,13.712ZM22.272,8V19.423a1.158,1.158,0,0,1-1.142,1.142H2.856a1.1,1.1,0,0,1-.8-.339,1.1,1.1,0,0,1-.339-.8V8a1.1,1.1,0,0,1,.339-.8,1.1,1.1,0,0,1,.8-.339H21.13A1.158,1.158,0,0,1,22.272,8Z" transform="translate(0.008 -1.712)"/>
</svg>
