<svg xmlns="http://www.w3.org/2000/svg" width="24" height="24" viewBox="0 0 24 24">
    <path data-name="Rectangle 2226" style="fill:none" d="M0 0h24v24H0z"/>
    <path data-name="Icon awesome-mobile-alt" d="M16.375 2h-8.75A1.875 1.875 0 0 0 5.75 3.875v16.25A1.875 1.875 0 0 0 7.625 22h8.75a1.875 1.875 0 0 0 1.875-1.875V3.875A1.875 1.875 0 0 0 16.375 2zM12 20.75a1.25 1.25 0 1 1 1.25-1.25A1.249 1.249 0 0 1 12 20.75zm4.375-4.219a.47.47 0 0 1-.469.469H8.094a.47.47 0 0 1-.469-.469V4.344a.47.47 0 0 1 .469-.469h7.813a.47.47 0 0 1 .469.469z"/>
</svg>
