<svg xmlns="http://www.w3.org/2000/svg" width="24" height="24" viewBox="0 0 24 24">
    <path data-name="Rectangle 2239" style="fill:none" d="M0 0h24v24H0z"/>
    <path data-name="Icon awesome-bell" d="M11.75 22a2.5 2.5 0 0 0 2.5-2.5h-5a2.5 2.5 0 0 0 2.5 2.5zm8.414-5.848C19.409 15.341 18 14.121 18 10.125a6.169 6.169 0 0 0-5-6.061V3.25a1.25 1.25 0 1 0-2.5 0v.814a6.169 6.169 0 0 0-5 6.061c0 4-1.412 5.216-2.167 6.027A1.22 1.22 0 0 0 3 17a1.251 1.251 0 0 0 1.254 1.25h14.992A1.251 1.251 0 0 0 20.5 17a1.22 1.22 0 0 0-.336-.848z"/>
</svg>
