<svg xmlns="http://www.w3.org/2000/svg" width="24" height="24" viewBox="0 0 24 24">
    <path data-name="Rectangle 2239" style="fill:none" d="M0 0h24v24H0z"/>
    <g data-name="Group 3976">
        <path data-name="Path 20119" d="M12 21.999a10 10 0 1 1 7.071-2.928A10.011 10.011 0 0 1 12 21.999"/>
        <path data-name="Path 20122" d="M508.55 362.594a1.9 1.9 0 0 1 1.608.608 1.786 1.786 0 0 1 .5 1.286.8.8 0 0 1-.717.8.784.784 0 0 1-.882-.655c-.036-.343-.19-.438-.5-.426-.438.016-.877 0-1.316.006a.815.815 0 1 0 0 1.621 9.856 9.856 0 0 1 1.543.076 2.361 2.361 0 0 1 1.875 2.327 2.42 2.42 0 0 1-1.858 2.387c-.1.024-.191.055-.3.087v1.29a.809.809 0 1 1-1.615 0v-1.274a6.707 6.707 0 0 1-.783-.111 1.861 1.861 0 0 1-1.377-1.822.8.8 0 0 1 .752-.8.781.781 0 0 1 .852.69c.034.313.184.4.465.391.45-.01.9 0 1.35 0a.815.815 0 1 0 0-1.621 9.751 9.751 0 0 1-1.51-.07 2.365 2.365 0 0 1-1.907-2.3 2.416 2.416 0 0 1 1.858-2.419c.1-.024.191-.055.3-.087v-1.29a.809.809 0 1 1 1.616 0c.007.416.007.832.011 1.248 0 .009.011.018.043.065" transform="translate(-495.752 -354.83)" style="fill:#fff"/>
    </g>
</svg>
