<svg xmlns="http://www.w3.org/2000/svg" width="59.886" height="58" viewBox="0 0 59.886 58">
  <path fill="none" d="M0 0h58v58H0z" data-name="Rectangle 2557"></path>
  <g data-name="Group 4321">
    <g data-name="Group 4319">
      <path
        fill="none"
        stroke="var(--primary-yellow)"
        strokeLinecap="round"
        strokeLinejoin="round"
        strokeWidth="2.667"
        d="M58 33L36 55 26 45"
        data-name="Icon feather-check"
      ></path>
    </g>
    <g fill="#ffb81c" data-name="Group 4320">
      <path d="M8.397 35.054h-7.4v-2.465h4.931V3.001h2.465z" data-name="Path 19572"></path>
      <path d="M27.399 25.191H7.163v-2.465h19.215l4.57-4.571 1.744 1.744z" data-name="Path 19573"></path>
      <path d="M31.82 17.795h4.931v2.465H31.82z" data-name="Rectangle 2335"></path>
      <path d="M37.984 21.492h2.465v11.096h-2.465z" data-name="Rectangle 2336"></path>
      <path d="M20.725 31.357h9.863v2.465h-9.863z" data-name="Rectangle 2337"></path>
      <path d="M10.862 23.958h2.465v6.164h-2.465z" data-name="Rectangle 2338"></path>
      <path d="M19.491 3.001h9.863v2.465h-9.863z" data-name="Rectangle 2339"></path>
      <path d="M30.588 6.698h2.465v12.328h-2.465z" data-name="Rectangle 2340"></path>
      <path
        d="M40.446 21.492h-2.465a1.235 1.235 0 00-1.234-1.233v-2.466a3.7 3.7 0 013.7 3.7"
        data-name="Path 19574"
      ></path>
      <path
        d="M33.053 6.699h-2.465a1.235 1.235 0 00-1.234-1.233V3a3.7 3.7 0 013.7 3.7"
        data-name="Path 19575"
      ></path>
      <path
        d="M13.291 24.261l-2.393-.6 2.466-9.862c1.917-7.669 3.693-10.8 6.127-10.8v2.465c-.014 0-1.528.1-3.735 8.929z"
        data-name="Path 19576"
      ></path>
      <path d="M7.164 27.657h4.931v2.465H7.164z" data-name="Rectangle 2341"></path>
      <path
        d="M15.793 37.519a4.931 4.931 0 114.931-4.931 4.937 4.937 0 01-4.931 4.931m0-7.4a2.466 2.466 0 102.465 2.465 2.468 2.468 0 00-2.465-2.465"
        data-name="Path 19577"
      ></path>
      <path
        d="M35.518 37.519a4.931 4.931 0 114.931-4.931 4.937 4.937 0 01-4.931 4.931m0-7.4a2.466 2.466 0 102.465 2.465 2.468 2.468 0 00-2.465-2.465"
        data-name="Path 19578"
      ></path>
    </g>
  </g>
</svg>
