<svg id="password-icon" xmlns="http://www.w3.org/2000/svg" width="16" height="16" viewBox="0 0 16 16">
  <rect id="Rectangle_2225" data-name="Rectangle 2225" width="16" height="16" transform="translate(0 0)" fill="none"/>
  <path id="Icon_ionic-md-lock" data-name="Icon ionic-md-lock" d="M14.417,7.13h-.762V5.606a3.81,3.81,0,1,0-7.619,0V7.13H5.274A1.528,1.528,0,0,0,3.75,8.654v7.619A1.528,1.528,0,0,0,5.274,17.8h9.143a1.528,1.528,0,0,0,1.524-1.524V8.654A1.528,1.528,0,0,0,14.417,7.13ZM9.845,14.064a1.524,1.524,0,1,1,1.524-1.524A1.528,1.528,0,0,1,9.845,14.064ZM12.207,7.13H7.483V5.606a2.362,2.362,0,1,1,4.724,0Z" transform="translate(-1.75 -1.797)" fill="#fff"/>
</svg>
