<svg id="sell-icon" xmlns="http://www.w3.org/2000/svg" width="24" height="24" viewBox="0 0 24 24">
  <rect id="Rectangle_2239" data-name="Rectangle 2239" width="24" height="24" fill="none"/>
  <path id="Icon_awesome-shopping-cart" data-name="Icon awesome-shopping-cart" d="M20.63,11.77l1.847-8.125A.938.938,0,0,0,21.562,2.5H6.219L5.861.75A.937.937,0,0,0,4.943,0H.938A.937.937,0,0,0,0,.938v.625A.937.937,0,0,0,.938,2.5h2.73L6.411,15.915a2.188,2.188,0,1,0,2.619.335H17.22a2.187,2.187,0,1,0,2.484-.406l.216-.948a.938.938,0,0,0-.914-1.145H8.52L8.265,12.5H19.716a.937.937,0,0,0,.914-.73Z" transform="translate(1 2)"/>
</svg>
