<svg xmlns="http://www.w3.org/2000/svg" width="20" height="20" viewBox="0 0 20 20">
    <path data-name="Rectangle 2595" style="fill:none" d="M0 0h20v20H0z"/>
    <path data-name="Icon awesome-money-bill-wave-alt" d="M19.411 2.952a9.254 9.254 0 0 0-3.638-.7C11.924 2.25 8.075 4.2 4.226 4.2a9.481 9.481 0 0 1-2.9-.429 1.068 1.068 0 0 0-.323-.051A.994.994 0 0 0 0 4.713v9.914a.994.994 0 0 0 .589.921 9.249 9.249 0 0 0 3.638.7c3.849 0 7.7-1.948 11.547-1.948a9.481 9.481 0 0 1 2.9.429 1.068 1.068 0 0 0 .323.051.994.994 0 0 0 1.003-.993V3.873a1 1 0 0 0-.589-.921zM10 12.25a2.784 2.784 0 0 1-2.5-3 2.784 2.784 0 0 1 2.5-3 2.784 2.784 0 0 1 2.5 3 2.784 2.784 0 0 1-2.5 3z" transform="translate(0 .75)" style="fill:#ccc"/>
</svg>
