<svg xmlns="http://www.w3.org/2000/svg" width="20" height="17.5" viewBox="0 0 20 17.5">
    <path data-name="Icon awesome-sort-amount-down" d="M11.875 15h-2.5a.625.625 0 0 0-.625.625v1.25a.625.625 0 0 0 .625.625h2.5a.625.625 0 0 0 .625-.625v-1.25a.625.625 0 0 0-.625-.625zm-5-2.5H5V.625A.625.625 0 0 0 4.375 0h-1.25A.625.625 0 0 0 2.5.625V12.5H.625a.625.625 0 0 0-.441 1.067l3.125 3.75a.625.625 0 0 0 .884 0l3.125-3.75a.626.626 0 0 0-.443-1.067zm10-7.5h-7.5a.625.625 0 0 0-.625.625v1.25a.625.625 0 0 0 .625.625h7.5a.625.625 0 0 0 .625-.625v-1.25A.625.625 0 0 0 16.875 5zm-2.5 5h-5a.625.625 0 0 0-.625.625v1.25a.625.625 0 0 0 .625.625h5a.625.625 0 0 0 .625-.625v-1.25a.625.625 0 0 0-.625-.625zm5-10h-10a.625.625 0 0 0-.625.625v1.25a.625.625 0 0 0 .625.625h10A.625.625 0 0 0 20 1.875V.625A.625.625 0 0 0 19.375 0z"/>
</svg>
