<svg xmlns="http://www.w3.org/2000/svg" width="24" height="24" viewBox="0 0 24 24">
    <path data-name="Rectangle 2239" style="fill:none" d="M0 0h24v24H0z"/>
    <path data-name="Icon awesome-list-alt" d="M20.125 21.071H3.875A1.875 1.875 0 0 1 2 19.196V5.446a1.875 1.875 0 0 1 1.875-1.875h16.25A1.875 1.875 0 0 1 22 5.446v13.75a1.875 1.875 0 0 1-1.875 1.875zM7 7.009a1.563 1.563 0 1 0 1.563 1.562A1.563 1.563 0 0 0 7 7.009zm0 3.75a1.563 1.563 0 1 0 1.563 1.562A1.563 1.563 0 0 0 7 10.759zm0 3.75a1.563 1.563 0 1 0 1.563 1.562A1.563 1.563 0 0 0 7 14.509zm11.25-5.313v-1.25a.469.469 0 0 0-.469-.469H9.969a.469.469 0 0 0-.469.469v1.25a.469.469 0 0 0 .469.469h7.813a.469.469 0 0 0 .468-.469zm0 3.75v-1.25a.469.469 0 0 0-.469-.469H9.969a.469.469 0 0 0-.469.469v1.25a.469.469 0 0 0 .469.469h7.813a.469.469 0 0 0 .468-.469zm0 3.75v-1.25a.469.469 0 0 0-.469-.469H9.969a.469.469 0 0 0-.469.469v1.25a.469.469 0 0 0 .469.469h7.813a.469.469 0 0 0 .468-.469z"/>
</svg>
