<svg xmlns="http://www.w3.org/2000/svg" width="155.112" height="50" viewBox="0 0 155.112 50">
    <defs>
        <clipPath id="482b88xd2a">
            <path data-name="Rectangle 1161" style="fill:none" d="M0 0h155.112v50H0z"/>
        </clipPath>
    </defs>
    <g data-name="Group 3365" style="clip-path:url(#482b88xd2a)">
        <path data-name="Path 3232" d="m498.617 31.092.454-.019v-1.489l-1.338-1.114-1.609.11.034-8.489a2.2 2.2 0 0 0-2.2-2.2h-2.066l-.747-5.82a2.582 2.582 0 0 0-2.58-2.583l-2.009.047V8.118h.04V5.865c0-3.029-2.767-5.494-6.167-5.494h-32.8c-3.4 0-6.167 2.465-6.167 5.494v34.258c0 3.029 2.767 5.494 6.167 5.494h10.682a10.348 10.348 0 0 0 16.869.614 11.4 11.4 0 0 0 1.584-5.47c.122.086.274.2.4.286-.013.128 0 .007-.046.362a10.892 10.892 0 0 1-1.31 4.209h3.529a6.619 6.619 0 0 1-1.443-.962l.013-.017a9.192 9.192 0 0 0 1.69.979h.011c.133.062.268.119.4.174a9.854 9.854 0 0 0 7.234-.3 9.546 9.546 0 0 0 5.247-9.068l6.582-.639v-4.158l-.435.033a.158.158 0 0 1-.17-.158v-.252a.158.158 0 0 1 .152-.158m-3.659-3.166-.206.01-.109.005h-.094l-11.772.579c-.106.006-.22.048-.226-.058s.081-.084.187-.09l11.811-.815V25.61l-11.772.579c-.106.006-.22.048-.226-.058s.081-.084.187-.091l11.811-.815v-1.937l-11.772.579c-.106.006-.22.048-.226-.058s.081-.084.187-.09l11.811-.819v-1.809l-11.772.579c-.106.006-.22.048-.226-.058s.081-.084.187-.09l11.9-.821.318-.03v.153zm-6.128-17.51a1.3 1.3 0 0 1 1.274 1.372l.861 7.337a.282.282 0 0 1-.018.091l3.379-.038a.44.44 0 0 1 .452.44l-13.332.4a.834.834 0 0 0-.773.832v8.05l-4.551.284-6.565-4.841h-6.128v.009l-3.247.03-1.945-3.146 1.722-.033.085-.939c.04-.436.724-.778 1.554-.778h1.568c.021 0 .041-.006.063-.006l1.312.006h.308l8.209-.08 1.116-8.455a.263.263 0 0 1 .252-.266h.252zm-30.813 5.393h-.063l.777-7.925a.586.586 0 0 1 .6-.529l16.49-.058.018.15-15.908.806a.568.568 0 0 0-.554.476zm26.064-11.77.069.066-.07-.043v-.023m-41.762 7.836 5.15-.627v-.53a.745.745 0 0 1 .407-.664l11.281-5.738a1.576 1.576 0 0 1 .931-.157l25.088.879a.2.2 0 0 1 .19.2v.676a.255.255 0 0 1-.264.255l-26.956.16-1.8 14.335 1.554 2.696.685.021-1.139-2.147h.355l1.688 2.821h-3.154l-1.861-3.084-6.238.048.038.214h.289l1.677 2.8h-2.83l-.222-.368-1.741-2.745h-3.128zm6.968 17.783v7.686h-1.269l.043-7.967 1.1-.577h2.259zm4.074.164v7.686h-1.269l.043-7.967 1.1-.577h2.265zm-10.814-3.47a.206.206 0 0 1-.228-.222v-.637c0-.142.115-.183.258-.183L459.7 25a.274.274 0 0 1 .274.273v.4a.21.21 0 0 0 .21.209h7.857a.355.355 0 0 1 .355.354v.664zm22.9 16.172c-1.873 0-3.391-1.932-3.391-4.315s1.518-4.315 3.391-4.315 3.392 1.932 3.392 4.315-1.518 4.315-3.392 4.315m5.491 4.161-.011-.008a12.638 12.638 0 0 0 2.18-7.51 12.633 12.633 0 0 0-2.259-7.416c-1.4-2.012-3.006-3.1-5.034-3.15-.09 0-.2 0-.286.007a6.439 6.439 0 0 0-5.03 2.609l-.026-.017s-.017-.012 0 0a6.647 6.647 0 0 1 5.358-2.97 6.944 6.944 0 0 1 5.474 3.277 13.016 13.016 0 0 1 2.153 7.624 12.738 12.738 0 0 1-2.518 7.553m4.12-9.56-.392-6.014-5.663-4.418a.611.611 0 0 1-.235-.482v-.743h-7.976a.22.22 0 0 1 0-.44h8.386l6.959 5.858.141 3.148 2.291-.173a.48.48 0 0 1 .519.477l.007 2.424zm13.384-1.669a.478.478 0 0 1-.436.476l-7.007.616a.478.478 0 0 1-.519-.476v-1.907a.478.478 0 0 1 .439-.477l7.029-.642a.478.478 0 0 1 .516.477zm9.614-1.026a.688.688 0 0 1-.621.693l-3.934.332a.686.686 0 0 1-.734-.694v-1.506a.687.687 0 0 1 .625-.693l3.942-.369a.667.667 0 0 1 .724.676zm-18.491-2.095v.78l-1.043.071v-.348a1.274 1.274 0 0 1-.712.223 1.48 1.48 0 0 1 0-2.952 1.276 1.276 0 0 1 .712.222v-.341l1.06-.1.005.986 18.065-1.428.149-.34.78.617.018.876z" transform="translate(-343.959 .711)" style="fill:#010101"/>
        <path data-name="Path 3233" d="m586.819 56.637 7.008-.069 3.523-.039-.892-7.7a.62.62 0 0 0-.608-.654l-7.678.16a.263.263 0 0 0-.248.266z" transform="translate(-457.212 -37.526)" style="fill:#010101"/>
        <path data-name="Path 3234" d="M642.838 56.113a.286.286 0 0 1-.019-.105l-.867-7.262a.959.959 0 0 0-.939-1.011l-3.457.071a.591.591 0 0 0-.548.632l.944 7.73z" transform="translate(-496.316 -37.181)" style="fill:#010101"/>
        <path data-name="Path 3235" d="m629.332 130.986-.78-.617-.149.34-18.065 1.428-.005-.986-1.06.1v.342a1.532 1.532 0 0 1 0 2.507v.348l1.042-.071v-.78l19.035-1.732z" transform="translate(-474.707 -101.547)" style="fill:#fff"/>
        <path data-name="Path 3236" d="m625.581 148.16-7.029.642a.478.478 0 0 0-.44.476v1.906a.478.478 0 0 0 .519.476l7.012-.614a.478.478 0 0 0 .436-.476l.017-1.935a.478.478 0 0 0-.516-.477" transform="translate(-481.595 -115.403)" style="fill:#fff"/>
        <path data-name="Path 3237" d="m678.327 144.3-3.942.369a.687.687 0 0 0-.625.693v1.507a.686.686 0 0 0 .734.694l3.934-.332a.687.687 0 0 0 .621-.693v-1.561a.667.667 0 0 0-.723-.676" transform="translate(-524.951 -112.397)" style="fill:#fff"/>
        <path data-name="Path 3238" d="M533.606 46.074a.262.262 0 0 0-.251.266l-1.116 8.455-8.209.08h-.308l-1.312-.006c-.022 0-.042 0-.063.006h-1.568c-.831 0-1.515.343-1.554.778l-.085.939-1.722.033 1.945 3.146 3.247-.03v-.008h6.128l6.565 4.841 4.551-.284v-8.05a.834.834 0 0 1 .773-.832l13.332-.4a.44.44 0 0 0-.452-.44l-3.379.037a.286.286 0 0 0 .018-.09l-.861-7.337a1.3 1.3 0 0 0-1.274-1.372l-14.152.266zm10.772.229 3.457-.071a.959.959 0 0 1 .939 1.011l.867 7.263a.283.283 0 0 0 .019.105l-4.887.054-.945-7.73a.592.592 0 0 1 .548-.633m-10.28.188 7.678-.16a.62.62 0 0 1 .608.653l.892 7.7-3.523.039-7.008.069 1.105-8.033a.263.263 0 0 1 .248-.266" transform="translate(-403.139 -35.679)" style="fill:#fff"/>
        <path data-name="Path 3239" d="M538.107 152c-1.873 0-3.391 1.932-3.391 4.315s1.518 4.315 3.391 4.315 3.391-1.932 3.391-4.315S539.98 152 538.107 152" transform="translate(-416.617 -118.395)" style="fill:#fff"/>
        <path data-name="Path 3240" d="M527.518 139.8c-.017-.011 0 0 0 0" transform="translate(-411.003 -108.892)" style="fill:#fdb71c"/>
        <path data-name="Path 3241" d="M532.9 126.381a6.646 6.646 0 0 0-5.358 2.97l.026.016a6.438 6.438 0 0 1 5.03-2.609c.09 0 .2-.009.286-.007 2.028.047 3.63 1.138 5.034 3.15a13.656 13.656 0 0 1 .082 14.926l.011.008a12.741 12.741 0 0 0 2.518-7.554 13.016 13.016 0 0 0-2.153-7.624 6.944 6.944 0 0 0-5.474-3.277" transform="translate(-411.031 -98.439)" style="fill:#fff"/>
        <path data-name="Path 3242" d="m546 120.734-2.291.173-.141-3.148-6.959-5.858h-8.386a.22.22 0 0 0 0 .44h7.977v.744a.612.612 0 0 0 .235.482l5.663 4.418.392 6.014 4.036-.363-.007-2.424a.48.48 0 0 0-.519-.477" transform="translate(-411.385 -87.162)" style="fill:#fff"/>
        <path data-name="Path 3243" d="m518.116 32.654 15.908-.807-.018-.15-16.49.058a.586.586 0 0 0-.6.529l-.777 7.925h.063l1.362-7.08a.568.568 0 0 1 .553-.476" transform="translate(-402.141 -24.689)" style="fill:#fff"/>
        <path data-name="Path 3244" d="m489.638 130.282-.043 7.967h1.269v-7.686L493 129.7h-2.259z" transform="translate(-381.461 -101.03)" style="fill:#fff"/>
        <path data-name="Path 3245" d="m471.193 129.539-.043 7.967h1.269v-7.686l2.136-.858H472.3z" transform="translate(-367.09 -100.451)" style="fill:#fff"/>
        <path data-name="Path 3246" d="M471.425 113.03a.355.355 0 0 0-.355-.354h-7.857a.21.21 0 0 1-.21-.209v-.4a.273.273 0 0 0-.274-.273l-17.129.306c-.143 0-.258.042-.258.184v.637a.206.206 0 0 0 .228.222l25.853.547z" transform="translate(-346.984 -87.076)" style="fill:#fff"/>
        <path data-name="Path 3247" d="m639.59 92.219-11.9.821c-.106.006-.193-.016-.187.09s.12.064.226.058l11.772-.579v1.813l-11.811.815c-.106.006-.193-.016-.187.09s.12.064.226.058l11.772-.579v1.937l-11.811.815c-.106.006-.193-.015-.187.091s.12.064.226.058l11.772-.579v1.951l-11.811.815c-.106.006-.193-.016-.187.09s.12.064.226.058l11.772-.579h.094l.109-.005.206-.01V92.195z" transform="translate(-488.911 -71.808)" style="fill:#fff"/>
        <path data-name="Path 3248" d="m450.214 36.963.221.368h2.28l-.348-.656-.618-.019-1.349-2.341h.856l6.238-.048 1.861 3.083h2.608l-.358-.674-.686-.021-1.549-2.692 1.8-14.335 26.957-.16a.255.255 0 0 0 .264-.255v-.676a.2.2 0 0 0-.19-.2l-25.088-.879a1.58 1.58 0 0 0-.931.157L450.9 23.35a.745.745 0 0 0-.407.664v.53l-5.149.627v9.046h3.128z" transform="translate(-346.985 -13.585)" style="fill:#fff"/>
        <path data-name="Path 3249" d="M602.606 136.368a1.5 1.5 0 0 1-.649 1.255 1.264 1.264 0 0 1-.713.221 1.479 1.479 0 0 1 0-2.948 1.266 1.266 0 0 1 .713.222 1.5 1.5 0 0 1 .649 1.25" transform="translate(-467.39 -105.073)" style="fill:#fff"/>
        <path data-name="Path 3250" d="M602.606 136.368a1.5 1.5 0 0 1-.649 1.255 1.264 1.264 0 0 1-.713.221 1.479 1.479 0 0 1 0-2.948 1.266 1.266 0 0 1 .713.222 1.5 1.5 0 0 1 .649 1.25z" transform="translate(-467.39 -105.073)" style="stroke:#010101;stroke-miterlimit:10;fill:none"/>
        <path data-name="Path 3251" d="M471.712 93.984h.011l-.038-.214h-.123z" transform="translate(-367.411 -73.039)" style="fill:#010101"/>
        <path data-name="Path 3252" d="m468.243 93.767 1.347 2.341.618.019-1.138-2.145h.056l-.15-.213h-.733z" transform="translate(-364.825 -73.037)" style="fill:#010101"/>
        <path data-name="Path 3253" d="m513.818 94.738 1.139 2.147h.064z" transform="translate(-400.334 -73.794)" style="fill:#fdb71c"/>
        <path data-name="Path 3254" d="m515.861 97.559-1.689-2.821h-.355l1.2 2.148h-.064l.358.674z" transform="translate(-400.334 -73.794)" style="fill:#fff"/>
        <path data-name="Path 3255" d="m472.571 94.767 1.51 2.529.169.24h-.026.03l-1.677-2.8h-.289l.016.029z" transform="translate(-367.978 -73.794)" style="fill:#fdb71c"/>
        <path data-name="Path 3256" d="m474.306 97.636-.169-.24-1.51-2.529h-.265l1.187 2.12h-.131l.348.656h.517z" transform="translate(-368.035 -73.894)" style="fill:#fff"/>
        <path data-name="Path 3257" d="M472.262 94.767h.007l-.016-.029h-.011z" transform="translate(-367.941 -73.794)" style="fill:#fdb71c"/>
        <path data-name="Path 3258" d="M472.073 94.767h-.007l-.02-.029h-.056l1.138 2.145h.131z" transform="translate(-367.745 -73.794)" style="fill:#fdb71c"/>
        <path data-name="Path 3259" d="M4.933 161.791v7.479H2.659v-7.479H0v-1.943h7.592v1.943z" transform="translate(0 -124.509)" style="fill:#fff"/>
        <path data-name="Path 3260" d="M69.089 169.271v-3.939H65.42v3.939h-2.274v-9.422h2.274v3.567h3.67v-3.567h2.273v9.422z" transform="translate(-49.2 -124.509)" style="fill:#fff"/>
        <path data-name="Rectangle 1153" transform="translate(29.423 35.339)" style="fill:#fff" d="M0 0h2.287v9.422H0z"/>
        <path data-name="Path 3261" d="M179.236 168.38a6.278 6.278 0 0 1-2.048-.319 4.343 4.343 0 0 1-1.588-.938 4.248 4.248 0 0 1-1.024-1.517 5.413 5.413 0 0 1-.366-2.056 4.9 4.9 0 0 1 .386-1.97 4.514 4.514 0 0 1 1.07-1.531 4.856 4.856 0 0 1 1.622-.992 5.989 5.989 0 0 1 4.048 0 4.851 4.851 0 0 1 1.609.985A4.434 4.434 0 0 1 184 161.56a4.9 4.9 0 0 1 .379 1.949 4.149 4.149 0 0 1-.119 1.018 4.012 4.012 0 0 1-.319.858 3.674 3.674 0 0 1-.452.685 3.563 3.563 0 0 1-.506.5v.04l1.981-.04v1.81zm2.739-4.8a3.234 3.234 0 0 0-.193-1.131 2.594 2.594 0 0 0-.545-.892 2.456 2.456 0 0 0-.844-.579 2.763 2.763 0 0 0-1.077-.206 2.677 2.677 0 0 0-1.057.206 2.543 2.543 0 0 0-.844.579 2.619 2.619 0 0 0-.558.892 3.128 3.128 0 0 0-.2 1.131 3.361 3.361 0 0 0 .193 1.165 2.652 2.652 0 0 0 .545.9 2.422 2.422 0 0 0 .838.586 2.866 2.866 0 0 0 2.134 0 2.48 2.48 0 0 0 .851-.586 2.692 2.692 0 0 0 .558-.9 3.26 3.26 0 0 0 .2-1.165" transform="translate(-135.733 -123.619)" style="fill:#fff"/>
        <path data-name="Path 3262" d="M252.1 169.271v-9.422h6.329v1.916H254.3v1.783h3.909v1.823H254.3v1.956h4.374v1.943z" transform="translate(-196.424 -124.509)" style="fill:#fff"/>
        <path data-name="Path 3263" d="M312.723 169.271v-9.422h6.329v1.916h-4.135v1.783h3.909v1.823h-3.909v1.956h4.374v1.943z" transform="translate(-243.654 -124.509)" style="fill:#fff"/>
        <path data-name="Path 3264" d="M373.341 169.271v-9.422h2.287v7.439h3.643v1.983z" transform="translate(-290.884 -124.509)" style="fill:#fff"/>
        <path data-name="Rectangle 1154" transform="translate(33.683 27.843)" style="fill:#fff" d="M0 0h5.964v4.393H0z"/>
        <path data-name="Rectangle 1155" transform="translate(26.471 27.843)" style="fill:#fff" d="M0 0h5.964v4.393H0z"/>
        <path data-name="Rectangle 1156" transform="translate(49.618 5.725)" style="fill:#fff" d="M0 0h5.964v4.394H0z"/>
        <path data-name="Rectangle 1157" transform="translate(56.831 5.725)" style="fill:#fff" d="M0 0h5.964v4.394H0z"/>
        <path data-name="Rectangle 1158" transform="translate(81.657)" style="fill:#fff" d="M0 0h5.964v4.394H0z"/>
        <path data-name="Rectangle 1159" transform="translate(85.171 5.724)" style="fill:#fff" d="M0 0h5.964v4.394H0z"/>
        <path data-name="Path 3265" d="M85.814 36.719v9.033q0 .818-.555.932H65.888V41.3a7.955 7.955 0 0 0-.185-1.835 3.4 3.4 0 0 0-.586-1.293 2.837 2.837 0 0 0-1.025-.827 5.243 5.243 0 0 0-1.518-.438 12.087 12.087 0 0 0-1.2-.142q-.663-.047-1.48-.047h-6.412q-.925 0-1.641.047a10.2 10.2 0 0 0-1.21.142 4.691 4.691 0 0 0-1.433.447 2.791 2.791 0 0 0-.986.846 3.549 3.549 0 0 0-.563 1.3 8.072 8.072 0 0 0-.177 1.8v5.382H37.317a.893.893 0 0 1-.495-.932v-9.031h-5.963v9a.845.845 0 0 1-.6.932 1.06 1.06 0 0 1-.308.019q-.278 0-.694.01l-.439.01h-9.086V32.345H13.8v18.41q0 .818-.555.932H7.28q-.57-.114-.57-.932V36.719H.746v19.912h12.991A16.785 16.785 0 0 0 16.8 56.4a4.7 4.7 0 0 0 1.364-.495 2.648 2.648 0 0 0 .909-.855 3.7 3.7 0 0 0 .5-1.294 8.992 8.992 0 0 0 .154-1.768v-.358h12.359v-.01c.167 0 .326-.006.468-.01a5.161 5.161 0 0 0 .986-.095 2.7 2.7 0 0 0 2.281-1.35q.693 1.464 3.313 1.465h28.834v-.006l4.5-.006v.012h13.284c.431 0 .824-.012 1.2-.031h.08a13.381 13.381 0 0 0 1.787-.194 4.709 4.709 0 0 0 1.364-.495 2.634 2.634 0 0 0 .909-.856 3.692 3.692 0 0 0 .5-1.293 8.99 8.99 0 0 0 .154-1.769V36.719zm-25.89 9.072a1.526 1.526 0 0 1-.093.647q-.092.19-.663.247h-5.255a.5.5 0 0 1-.393-.238 1.729 1.729 0 0 1-.085-.656V42.6a.846.846 0 0 1 .863-.971h5.086q.539.171.539.971z" transform="translate(-.581 -25.194)" style="fill:#fff"/>
        <path data-name="Rectangle 1160" transform="translate(77.959 5.725)" style="fill:#fff" d="M0 0h5.964v4.394H0z"/>
    </g>
</svg>
