<svg xmlns="http://www.w3.org/2000/svg" width="199" height="64" viewBox="0 0 199 64">
    <defs>
        <clipPath id="adkojdsmla">
            <path data-name="Rectangle 1161" style="fill:none" d="M0 0h199v64H0z"/>
        </clipPath>
    </defs>
    <g data-name="Group 3365" style="clip-path:url(#adkojdsmla)">
        <path data-name="Path 3232" d="m514.789 39.693.582-.024v-1.906l-1.717-1.425-2.065.141.044-10.867a2.818 2.818 0 0 0-2.82-2.816h-2.65l-.959-7.449a3.308 3.308 0 0 0-3.311-3.306l-2.578.06v-1.814h.052V7.4c0-3.878-3.55-7.032-7.912-7.032h-42.081c-4.363 0-7.912 3.155-7.912 7.032v43.85c0 3.878 3.549 7.033 7.912 7.033h13.7a13.293 13.293 0 0 0 21.642.786 14.572 14.572 0 0 0 2.033-7c.156.11.352.256.507.366-.017.164 0 .009-.06.463a13.918 13.918 0 0 1-1.68 5.388h4.528a8.492 8.492 0 0 1-1.851-1.231l.017-.022a11.8 11.8 0 0 0 2.168 1.253h.014c.171.079.344.153.519.223a12.67 12.67 0 0 0 9.281-.383c4.055-1.936 6.789-6.121 6.732-11.607l8.444-.818v-5.323l-.558.042a.2.2 0 0 1-.219-.2v-.32a.2.2 0 0 1 .195-.2m-4.686-4.059-.264.013-.14.007-.121.006-15.1.741c-.136.008-.282.062-.29-.074s.1-.108.24-.116l15.153-1.043v-2.5l-15.1.741c-.136.008-.282.062-.29-.074s.1-.108.24-.116l15.153-1.043V29.7l-15.1.741c-.136.008-.282.062-.29-.074s.1-.108.24-.116l15.153-1.043v-2.32l-15.1.741c-.136.008-.282.062-.29-.074s.1-.108.24-.116l15.266-1.051.408-.038v.2zm-7.861-22.412a1.667 1.667 0 0 1 1.634 1.757l1.105 9.391a.359.359 0 0 1-.023.116l4.335-.048a.564.564 0 0 1 .58.563l-17.1.507a1.068 1.068 0 0 0-.991 1.065v10.3l-5.839.364-8.422-6.2h-7.863v.011l-4.166.038-2.5-4.026 2.209-.043.109-1.2c.051-.558.928-1 1.994-1h2.012c.027 0 .053-.008.08-.008l1.683.008h.4l10.532-.1 1.432-10.822a.336.336 0 0 1 .323-.34h.323zm-39.532 6.9h-.081l1-10.144a.751.751 0 0 1 .772-.677l21.156-.074.023.192-20.417 1.034a.728.728 0 0 0-.71.61zm33.434-15.062c.029.028.06.055.088.084l-.09-.055v-.029M442.562 15.1l6.607-.8v-.678a.954.954 0 0 1 .522-.85l14.473-7.344a2.026 2.026 0 0 1 1.195-.2l32.187 1.126a.26.26 0 0 1 .243.259v.865a.326.326 0 0 1-.339.326L462.866 8l-2.308 18.35 1.988 3.446.879.027-1.461-2.748h.455l2.166 3.611h-4.047l-2.388-3.947-8 .062.049.274h.37l2.151 3.585h-3.625l-.284-.471-2.234-3.514h-4.013zm8.94 22.762V47.7h-1.628l.055-10.2 1.416-.739h2.9zm5.227.21v9.838H455.1l.055-10.2 1.416-.739h2.9zm-13.874-4.442a.264.264 0 0 1-.293-.284v-.816c0-.182.148-.235.331-.235l21.973-.392a.351.351 0 0 1 .351.349v.517a.269.269 0 0 0 .269.268h10.08a.455.455 0 0 1 .456.453v.839zm29.382 20.7c-2.4 0-4.351-2.473-4.351-5.524s1.948-5.524 4.351-5.524 4.351 2.473 4.351 5.524-1.948 5.524-4.351 5.524m7.045 5.327-.014-.01c1.865-2.4 2.734-5.838 2.8-9.613a16.144 16.144 0 0 0-2.9-9.493c-1.8-2.576-3.857-3.972-6.458-4.032-.115 0-.252.006-.367.009a8.266 8.266 0 0 0-6.453 3.34l-.033-.021s-.022-.015 0 0c1.919-2.458 4.249-3.862 6.874-3.8a8.912 8.912 0 0 1 7.022 4.195 16.632 16.632 0 0 1 2.762 9.759 16.281 16.281 0 0 1-3.231 9.668m5.286-12.236-.5-7.7-7.27-5.659a.781.781 0 0 1-.3-.616V32.5h-10.235a.282.282 0 1 1 0-.564h10.759l8.928 7.5.181 4.03 2.94-.222a.615.615 0 0 1 .665.611l.009 3.1zm17.17-2.136a.613.613 0 0 1-.559.61l-9 .786a.612.612 0 0 1-.666-.61v-2.44a.612.612 0 0 1 .564-.61l9.017-.822a.613.613 0 0 1 .662.61zm12.334-1.314a.881.881 0 0 1-.8.887l-5.047.425a.879.879 0 0 1-.942-.888v-1.935a.881.881 0 0 1 .8-.887l5.057-.472a.855.855 0 0 1 .929.866zm-23.724-2.687v1l-1.338.091v-.447a1.638 1.638 0 0 1-.913.285 1.895 1.895 0 0 1 0-3.778 1.639 1.639 0 0 1 .913.285v-.437l1.359-.126.006 1.262 23.176-1.827.191-.435 1 .789.024 1.122z" transform="translate(-316.371 -.266)" style="fill:#010101"/>
        <path data-name="Path 3233" d="m586.819 59.005 8.991-.088 4.519-.05-1.145-9.853a.8.8 0 0 0-.78-.836l-9.85.205a.337.337 0 0 0-.318.34z" transform="translate(-420.541 -34.544)" style="fill:#010101"/>
        <path data-name="Path 3234" d="M644.488 58.459a.364.364 0 0 1-.024-.135l-1.113-9.3a1.228 1.228 0 0 0-1.2-1.294l-4.436.091a.758.758 0 0 0-.7.809l1.212 9.894z" transform="translate(-456.508 -34.226)" style="fill:#010101"/>
        <path data-name="Path 3235" d="m635.007 131.158-1-.789-.191.435-23.176 1.827-.006-1.262-1.359.126v.437a1.958 1.958 0 0 1 0 3.208v.445l1.337-.091v-1l24.42-2.217z" transform="translate(-436.632 -93.477)" style="fill:#fdb71c"/>
        <path data-name="Path 3236" d="m627.694 148.16-9.017.822a.612.612 0 0 0-.564.61v2.44a.613.613 0 0 0 .666.61l9-.786a.612.612 0 0 0 .559-.61l.021-2.476a.613.613 0 0 0-.662-.61" transform="translate(-442.967 -106.232)" style="fill:#fdb71c"/>
        <path data-name="Path 3237" d="m679.619 144.3-5.057.472a.881.881 0 0 0-.8.887v1.929a.879.879 0 0 0 .942.888l5.047-.425a.881.881 0 0 0 .8-.887v-2a.855.855 0 0 0-.928-.866" transform="translate(-482.846 -103.464)" style="fill:#fdb71c"/>
        <path data-name="Path 3238" d="M538.187 46.148a.336.336 0 0 0-.322.34l-1.432 10.823-10.532.1h-.4l-1.683-.008c-.028 0-.054.006-.081.008h-2.012c-1.066 0-1.944.439-1.994 1l-.109 1.2-2.209.043 2.5 4.026 4.166-.039v-.011h7.863l8.423 6.2 5.839-.364v-10.3a1.068 1.068 0 0 1 .991-1.065l17.1-.507a.564.564 0 0 0-.58-.563l-4.334.048a.368.368 0 0 0 .023-.116l-1.104-9.4a1.666 1.666 0 0 0-1.634-1.756l-18.157.341zm13.82.294 4.436-.09a1.228 1.228 0 0 1 1.2 1.294l1.113 9.3a.365.365 0 0 0 .024.135l-6.269.069-1.211-9.898a.758.758 0 0 1 .7-.81m-13.188.24 9.85-.205a.8.8 0 0 1 .779.836l1.145 9.854-4.519.05-8.991.088 1.424-10.282a.336.336 0 0 1 .318-.34" transform="translate(-370.804 -32.844)" style="fill:#fdb71c"/>
        <path data-name="Path 3239" d="M539.067 152c-2.4 0-4.351 2.473-4.351 5.524s1.948 5.524 4.351 5.524 4.351-2.473 4.351-5.524S541.47 152 539.067 152" transform="translate(-383.201 -108.986)" style="fill:#fdb71c"/>
        <path data-name="Path 3240" d="M527.52 139.806c-.022-.014 0 0 0 0" transform="translate(-378.038 -100.239)" style="fill:#fdb71c"/>
        <path data-name="Path 3241" d="M534.421 126.381c-2.625-.061-4.955 1.343-6.874 3.8l.033.021a8.266 8.266 0 0 1 6.453-3.34c.115 0 .252-.012.367-.009 2.6.06 4.657 1.457 6.458 4.032a16.143 16.143 0 0 1 2.9 9.493c-.062 3.775-.932 7.209-2.8 9.613l.014.01a16.285 16.285 0 0 0 3.231-9.669 16.632 16.632 0 0 0-2.762-9.759 8.912 8.912 0 0 0-7.023-4.195" transform="translate(-378.064 -90.616)" style="fill:#fdb71c"/>
        <path data-name="Path 3242" d="m551.09 123.208-2.94.222-.18-4.03-8.928-7.5h-10.759a.282.282 0 1 0 0 .564h10.232v.952a.783.783 0 0 0 .3.617l7.265 5.655.5 7.7 5.179-.464-.009-3.1a.615.615 0 0 0-.665-.61" transform="translate(-378.389 -80.235)" style="fill:#fdb71c"/>
        <path data-name="Path 3243" d="m518.676 32.921 20.409-1.033-.023-.192-21.156.074a.752.752 0 0 0-.772.678l-1 10.144h.081l1.748-9.062a.728.728 0 0 1 .71-.61" transform="translate(-369.887 -22.727)" style="fill:#fdb71c"/>
        <path data-name="Path 3244" d="m489.65 130.444-.055 10.2h1.628V130.8l2.741-1.1h-2.9z" transform="translate(-350.866 -93.001)" style="fill:#fdb71c"/>
        <path data-name="Path 3245" d="m471.2 129.7-.055 10.2h1.628v-9.84l2.741-1.1h-2.9z" transform="translate(-337.647 -92.468)" style="fill:#fdb71c"/>
        <path data-name="Path 3246" d="M478.805 113.377a.455.455 0 0 0-.456-.453h-10.08a.269.269 0 0 1-.269-.268v-.517a.35.35 0 0 0-.351-.349l-21.973.392c-.183 0-.331.053-.331.235v.816a.264.264 0 0 0 .293.284l33.168.7z" transform="translate(-319.153 -80.155)" style="fill:#fdb71c"/>
        <path data-name="Path 3247" d="m643.01 92.227-15.266 1.051c-.136.008-.248-.02-.24.116s.154.082.29.074l15.1-.741v2.321l-15.153 1.043c-.136.008-.248-.02-.24.116s.154.082.29.074l15.1-.741v2.48l-15.153 1.043c-.136.008-.248-.02-.24.116s.154.082.29.074l15.1-.741v2.5l-15.153 1.043c-.136.008-.248-.02-.24.116s.154.082.29.074l15.1-.741.121-.006.14-.007.264-.013v-9.292z" transform="translate(-449.697 -66.101)" style="fill:#fdb71c"/>
        <path data-name="Path 3248" d="m451.592 42.429.284.471h2.924l-.446-.839-.793-.024-1.728-3h1.1l8-.062 2.388 3.947h3.345l-.459-.863-.88-.026-1.988-3.446 2.308-18.349 34.584-.2a.327.327 0 0 0 .339-.326v-.865a.26.26 0 0 0-.243-.26l-32.185-1.127a2.031 2.031 0 0 0-1.195.2L452.474 25a.954.954 0 0 0-.522.85v.678l-6.606.8v11.587h4.013z" transform="translate(-319.154 -12.506)" style="fill:#fdb71c"/>
        <path data-name="Path 3249" d="M603.377 136.78a1.923 1.923 0 0 1-.832 1.606 1.625 1.625 0 0 1-.915.284 1.892 1.892 0 0 1 0-3.774 1.627 1.627 0 0 1 .915.284 1.92 1.92 0 0 1 .832 1.6" transform="translate(-429.902 -96.723)" style="fill:#fff"/>
        <path data-name="Path 3250" d="M603.377 136.78a1.923 1.923 0 0 1-.832 1.606 1.625 1.625 0 0 1-.915.284 1.892 1.892 0 0 1 0-3.774 1.627 1.627 0 0 1 .915.284 1.92 1.92 0 0 1 .832 1.6z" transform="translate(-429.902 -96.723)" style="stroke:#010101;stroke-miterlimit:10;fill:none"/>
        <path data-name="Path 3251" d="M471.755 94.044h.014l-.049-.274h-.158z" transform="translate(-337.942 -67.234)" style="fill:#010101"/>
        <path data-name="Path 3252" d="m468.243 93.767 1.728 3 .793.024-1.46-2.745h.071l-.193-.273h-.94z" transform="translate(-335.564 -67.233)" style="fill:#010101"/>
        <path data-name="Path 3253" d="m513.818 94.738 1.461 2.748h.082z" transform="translate(-368.225 -67.929)" style="fill:#fdb71c"/>
        <path data-name="Path 3254" d="m516.439 98.349-2.166-3.611h-.455l1.543 2.75h-.082l.459.863z" transform="translate(-368.224 -67.929)" style="fill:#fdb71c"/>
        <path data-name="Path 3255" d="m472.65 94.775 1.937 3.237.216.307h-.033.038l-2.151-3.585h-.37l.02.037z" transform="translate(-338.464 -67.929)" style="fill:#fdb71c"/>
        <path data-name="Path 3256" d="m474.856 98.411-.216-.307-1.94-3.237h-.34l1.522 2.714-.168-.005.446.839h.663z" transform="translate(-338.516 -68.021)" style="fill:#fdb71c"/>
        <path data-name="Path 3257" d="M472.268 94.775h.008l-.021-.037h-.014z" transform="translate(-338.43 -67.929)" style="fill:#fdb71c"/>
        <path data-name="Path 3258" d="M472.1 94.775h-.008l-.026-.037h-.071l1.46 2.745.168.005z" transform="translate(-338.249 -67.929)" style="fill:#fdb71c"/>
        <path data-name="Path 3259" d="M6.328 162.335v9.574H3.411v-9.574H0v-2.487h9.739v2.487z" transform="translate(0 -114.614)" style="fill:#010101"/>
        <path data-name="Path 3260" d="M70.771 171.909v-5.042h-4.708v5.042h-2.917v-12.06h2.917v4.565h4.708v-4.565h2.917v12.06z" transform="translate(-45.254 -114.614)" style="fill:#010101"/>
        <path data-name="Rectangle 1153" transform="translate(37.747 45.234)" style="fill:#010101" d="M0 0h2.934v12.06H0z"/>
        <path data-name="Path 3261" d="M180.658 171.089a8.07 8.07 0 0 1-2.627-.409 5.574 5.574 0 0 1-2.038-1.2 5.436 5.436 0 0 1-1.314-1.942 6.916 6.916 0 0 1-.469-2.632 6.263 6.263 0 0 1 .495-2.521 5.778 5.778 0 0 1 1.373-1.959 6.232 6.232 0 0 1 2.081-1.269 7.7 7.7 0 0 1 5.194 0 6.226 6.226 0 0 1 2.064 1.261 5.676 5.676 0 0 1 1.356 1.942 6.257 6.257 0 0 1 .486 2.5 5.3 5.3 0 0 1-.153 1.3 5.128 5.128 0 0 1-.41 1.1 4.7 4.7 0 0 1-.579.877 4.571 4.571 0 0 1-.649.639v.051l2.542-.051v2.316zm3.514-6.149a4.131 4.131 0 0 0-.247-1.448 3.318 3.318 0 0 0-.7-1.141 3.151 3.151 0 0 0-1.083-.741 3.552 3.552 0 0 0-1.382-.264 3.442 3.442 0 0 0-1.356.264 3.262 3.262 0 0 0-1.083.741 3.35 3.35 0 0 0-.716 1.141 4 4 0 0 0-.256 1.448 4.293 4.293 0 0 0 .247 1.491 3.393 3.393 0 0 0 .7 1.158 3.106 3.106 0 0 0 1.075.75 3.684 3.684 0 0 0 2.738 0 3.182 3.182 0 0 0 1.092-.75 3.444 3.444 0 0 0 .716-1.158 4.164 4.164 0 0 0 .256-1.491" transform="translate(-124.847 -113.794)" style="fill:#010101"/>
        <path data-name="Path 3262" d="M252.1 171.909v-12.06h8.119v2.451h-5.3v2.283h5.015v2.334h-5.015v2.5h5.612v2.487z" transform="translate(-180.669 -114.614)" style="fill:#010101"/>
        <path data-name="Path 3263" d="M312.723 171.909v-12.06h8.119v2.451h-5.3v2.283h5.014v2.334h-5.014v2.5h5.612v2.487z" transform="translate(-224.111 -114.614)" style="fill:#010101"/>
        <path data-name="Path 3264" d="M373.341 171.909v-12.06h2.934v9.522h4.674v2.538z" transform="translate(-267.553 -114.614)" style="fill:#010101"/>
        <path data-name="Rectangle 1154" transform="translate(43.214 35.639)" style="fill:#010101" d="M0 0h7.651v5.623H0z"/>
        <path data-name="Rectangle 1155" transform="translate(33.961 35.639)" style="fill:#010101" d="M0 0h7.651v5.623H0z"/>
        <path data-name="Rectangle 1156" transform="translate(63.658 7.328)" style="fill:#010101" d="M0 0h7.651v5.624H0z"/>
        <path data-name="Rectangle 1157" transform="translate(72.91 7.328)" style="fill:#010101" d="M0 0h7.651v5.624H0z"/>
        <path data-name="Rectangle 1158" transform="translate(104.762)" style="fill:#010101" d="M0 0h7.652v5.624H0z"/>
        <path data-name="Rectangle 1159" transform="translate(109.27 7.327)" style="fill:#010101" d="M0 0h7.651v5.624H0z"/>
        <path data-name="Path 3265" d="M109.883 37.944v11.563q0 1.048-.712 1.193H84.319v-6.889a10.16 10.16 0 0 0-.237-2.349 4.353 4.353 0 0 0-.751-1.655 3.638 3.638 0 0 0-1.314-1.059 6.738 6.738 0 0 0-1.947-.56q-.692-.121-1.542-.182t-1.9-.061H68.4q-1.186 0-2.106.061a13.114 13.114 0 0 0-1.552.182 6.028 6.028 0 0 0-1.839.572 3.578 3.578 0 0 0-1.265 1.083 4.537 4.537 0 0 0-.722 1.667 10.31 10.31 0 0 0-.228 2.3v6.89H47.665a1.142 1.142 0 0 1-.634-1.193V37.944h-7.652v11.515a1.082 1.082 0 0 1-.771 1.192 1.362 1.362 0 0 1-.4.024q-.356 0-.89.012l-.563.012H25.1V32.345h-7.608v23.564q0 1.047-.712 1.193H9.129q-.729-.146-.729-1.193V37.944H.746v25.488h16.667a21.582 21.582 0 0 0 3.935-.292 6.035 6.035 0 0 0 1.75-.633 3.393 3.393 0 0 0 1.167-1.095 4.733 4.733 0 0 0 .642-1.656 11.484 11.484 0 0 0 .2-2.264v-.462h15.846v-.012c.214 0 .418-.007.6-.013a6.636 6.636 0 0 0 1.265-.121q2.333-.365 2.926-1.728.891 1.874 4.256 1.874h36.988v-.007l5.773-.008v.015H109.8c.553 0 1.057-.016 1.54-.039h.1v-.005a17.2 17.2 0 0 0 2.292-.248 6.05 6.05 0 0 0 1.75-.633 3.377 3.377 0 0 0 1.167-1.1 4.719 4.719 0 0 0 .642-1.655 11.481 11.481 0 0 0 .2-2.264V37.944zM76.668 49.556a1.949 1.949 0 0 1-.119.828q-.119.243-.85.316h-6.742a.636.636 0 0 1-.5-.3 2.209 2.209 0 0 1-.109-.84v-4.093a1.084 1.084 0 0 1 1.107-1.242h6.525q.692.219.692 1.242z" transform="translate(-.535 -23.192)" style="fill:#010101"/>
        <path data-name="Rectangle 1160" transform="translate(100.017 7.328)" style="fill:#010101" d="M0 0h7.651v5.624H0z"/>
    </g>
</svg>
