<svg xmlns="http://www.w3.org/2000/svg" width="32" height="32.083" viewBox="0 0 32 32.083">
    <path data-name="Path 18914" d="M32 15.815A16 16 0 1 1 16.229.026 15.871 15.871 0 0 1 32 15.815M5.376 24.236l-.009.1a1.75 1.75 0 0 0 .236.18 12.86 12.86 0 0 0 4.809 1.6 13.24 13.24 0 0 0 6.133-.664 12.262 12.262 0 0 0 5.63-4.1 13.267 13.267 0 0 0 2.894-8.442.751.751 0 0 1 .313-.68 8.089 8.089 0 0 0 1.545-1.524c.094-.117.164-.248.248-.372a7.58 7.58 0 0 0-1.12.255 2.739 2.739 0 0 1-1.2.187 5.007 5.007 0 0 0 1.85-2.366c-.164.065-.243.1-.325.129l-2.107.807A.59.59 0 0 1 23.6 9.2a4.395 4.395 0 0 0-2.532-1.167 4.521 4.521 0 0 0-5.08 4.08c-.04.479-.007.963-.007 1.492a9.964 9.964 0 0 1-3.5-.645 13.4 13.4 0 0 1-3.245-1.63A14.374 14.374 0 0 1 6.568 8.9a4.064 4.064 0 0 0-.592 2.036 4.658 4.658 0 0 0 1.891 3.925c-.094.047-.129.082-.168.084a5.461 5.461 0 0 1-1.732-.445 3.327 3.327 0 0 0 .333 1.75 4.6 4.6 0 0 0 3.147 2.675c-.075.07-.1.117-.131.119-.556.047-1.113.089-1.7.133a1.423 1.423 0 0 0 .065.267 4.472 4.472 0 0 0 3.456 2.693c.178.033.355.082.531.122a8.632 8.632 0 0 1-6.294 1.978" transform="translate(0 -.026)" style="fill:#fff"/>
</svg>
