<svg id="visa_master_logo_active" xmlns="http://www.w3.org/2000/svg" width="106.388" height="24" viewBox="0 0 106.388 24">
  <g id="Group_4052" data-name="Group 4052" transform="translate(-37.595)" style="mix-blend-mode: normal;isolation: isolate">
    <g id="layer1" transform="translate(105.15)">
      <g id="g13">
        <g id="XMLID_328_">
          <rect id="rect19" width="10.5" height="18.867" transform="translate(14.167 2.567)" fill="#ff5f00"/>
          <path id="XMLID_330_" d="M2913.568,2251.5a12.031,12.031,0,0,1,4.567-9.433,12,12,0,1,0,0,18.867A11.982,11.982,0,0,1,2913.568,2251.5Z" transform="translate(-2898.734 -2239.502)" fill="#eb001b"/>
          <path id="path22" d="M3418.568,2251.5a11.987,11.987,0,0,1-19.4,9.433,12.027,12.027,0,0,0,0-18.867,11.987,11.987,0,0,1,19.4,9.433Z" transform="translate(-3379.735 -2239.502)" fill="#f79e1b"/>
        </g>
      </g>
    </g>
    <path id="path3789" d="M36.685.5c-3.945,0-7.47,2.045-7.47,5.822,0,4.332,6.252,4.631,6.252,6.808,0,.916-1.05,1.737-2.844,1.737a9.443,9.443,0,0,1-4.448-1.146l-.814,3.812a13.883,13.883,0,0,0,5.1.968c4.313,0,7.706-2.145,7.706-5.987,0-4.578-6.278-4.868-6.278-6.888,0-.718.862-1.5,2.651-1.5a9.009,9.009,0,0,1,3.664.834L41,1.273A11.923,11.923,0,0,0,36.685.5ZM.6.778l-.1.556a18.552,18.552,0,0,1,3.154.91c1.924.695,2.062,1.1,2.386,2.355L9.572,18.213h4.734L21.6.778H16.876L12.19,12.632,10.277,2.584A2.067,2.067,0,0,0,8.126.778H.6Zm22.9,0L19.794,18.213h4.5L27.991.778H23.5Zm25.122,0a2.125,2.125,0,0,0-2.084,1.6l-6.6,15.838h4.724l.914-2.64h5.755l.556,2.64h4.168L52.418.778h-3.8Zm.614,4.711,1.4,6.543H46.885l2.351-6.543Z" transform="translate(37.095 2.5)" fill="#1434cb"/>
  </g>
</svg>
