<svg id="visa-master-card" xmlns="http://www.w3.org/2000/svg" width="24" height="24" viewBox="0 0 24 24">
  <rect id="Rectangle_2226" data-name="Rectangle 2226" width="24" height="24" fill="none"/>
  <path id="Icon_metro-visa" data-name="Icon metro-visa" d="M19.336,14.551H18.1q.125-.33.589-1.6l.027-.08q.036-.089.089-.232t.08-.232L19,12.9Zm-12.884-.58-.518-2.632a.591.591,0,0,0-.669-.482H2.874l-.018.116a4.733,4.733,0,0,1,3.6,3Zm1.6-3.114L6.6,14.765l-.152-.794a3.244,3.244,0,0,0-.758-1.155,3.46,3.46,0,0,0-1.169-.79l1.2,4.551H7.29l2.329-5.719H8.049Zm1.24,5.728H10.77l.928-5.728H10.217ZM16.142,11a3.616,3.616,0,0,0-1.329-.241,2.892,2.892,0,0,0-1.793.526,1.66,1.66,0,0,0-.7,1.365q-.009.91,1.294,1.553a2.468,2.468,0,0,1,.6.366.475.475,0,0,1,.17.348.446.446,0,0,1-.268.41,1.288,1.288,0,0,1-.616.143,3.224,3.224,0,0,1-1.392-.294l-.2-.1L11.7,16.362a3.953,3.953,0,0,0,1.651.3,2.946,2.946,0,0,0,1.86-.526,1.754,1.754,0,0,0,.718-1.428q0-.946-1.249-1.553a4.312,4.312,0,0,1-.634-.375.43.43,0,0,1-.2-.339.417.417,0,0,1,.219-.344,1.124,1.124,0,0,1,.629-.147,2.519,2.519,0,0,1,1.106.214l.134.071Zm3.792-.143H18.792a.758.758,0,0,0-.776.482l-2.195,5.247h1.553l.312-.857h1.892q.045.2.178.857H21.13ZM22.272,8V19.423a1.158,1.158,0,0,1-1.142,1.142H2.856a1.1,1.1,0,0,1-.8-.339,1.1,1.1,0,0,1-.339-.8V8a1.1,1.1,0,0,1,.339-.8,1.1,1.1,0,0,1,.8-.339H21.13A1.158,1.158,0,0,1,22.272,8Z" transform="translate(-0.271 -1.712)"/>
</svg>
