<svg xmlns="http://www.w3.org/2000/svg" width="32" height="32" viewBox="0 0 32 32">
    <g style="opacity:.897">
        <path data-name="Rectangle 2239" style="fill:none" d="M0 0h32v32H0z"/>
        <path data-name="Icon awesome-star" d="m13.7.974-3.527 7.24-7.892 1.165a1.757 1.757 0 0 0-.956 2.986L7.034 18l-1.35 7.957A1.732 1.732 0 0 0 8.19 27.8l7.06-3.757 7.06 3.757a1.733 1.733 0 0 0 2.506-1.843L23.466 18l5.709-5.633a1.757 1.757 0 0 0-.956-2.986l-7.892-1.167L16.8.974a1.721 1.721 0 0 0-3.1 0z" transform="translate(1.199 2)" style="fill:#ffb81c;stroke:#ebebeb"/>
    </g>
</svg>
